# Blender 4.1.1
# www.blender.org
mtllib Ball.mtl
o vsn_mesh_0_
v 0.116512 -0.398003 -0.056109
v 0.080629 -0.398003 -0.101106
v 0.221620 -0.338562 -0.106726
v 0.153366 -0.338562 -0.192314
v 0.028776 -0.398003 -0.126077
v 0.054736 -0.338562 -0.239812
v -0.028776 -0.398003 -0.126077
v -0.054736 -0.338562 -0.239812
v -0.080629 -0.398003 -0.101106
v -0.153366 -0.338562 -0.192314
v -0.116512 -0.398003 -0.056109
v -0.221620 -0.338562 -0.106726
v -0.129319 -0.398003 0.000000
v -0.245979 -0.338562 0.000000
v -0.116512 -0.398003 0.056109
v -0.221620 -0.338562 0.106726
v -0.080629 -0.398003 0.101106
v -0.153366 -0.338562 0.192314
v -0.028776 -0.398003 0.126077
v -0.054736 -0.338562 0.239812
v 0.028776 -0.398003 0.126077
v 0.054736 -0.338562 0.239812
v 0.080629 -0.398003 0.101106
v 0.153366 -0.338562 0.192314
v 0.116512 -0.398003 0.056109
v 0.221620 -0.338562 0.106726
v 0.129319 -0.398003 0.000000
v 0.245979 -0.338562 0.000000
v 0.116512 -0.398003 -0.056109
v 0.221620 -0.338562 -0.106726
v 0.305034 -0.245979 -0.146896
v 0.211090 -0.245979 -0.264698
v 0.075337 -0.245979 -0.330073
v -0.075337 -0.245979 -0.330073
v -0.211090 -0.245979 -0.264698
v -0.305033 -0.245979 -0.146896
v -0.338562 -0.245979 0.000000
v -0.305033 -0.245979 0.146896
v -0.211090 -0.245979 0.264698
v -0.075337 -0.245979 0.330073
v 0.075337 -0.245979 0.330073
v 0.211090 -0.245979 0.264698
v 0.305033 -0.245979 0.146896
v 0.338562 -0.245979 0.000000
v 0.305034 -0.245979 -0.146896
v 0.358588 -0.129319 -0.172687
v 0.248151 -0.129319 -0.311171
v 0.088564 -0.129319 -0.388024
v -0.088564 -0.129319 -0.388024
v -0.248151 -0.129319 -0.311171
v -0.358588 -0.129319 -0.172687
v -0.398003 -0.129319 0.000000
v -0.358588 -0.129319 0.172687
v -0.248151 -0.129319 0.311171
v -0.088564 -0.129319 0.388024
v 0.088564 -0.129319 0.388024
v 0.248151 -0.129319 0.311171
v 0.358588 -0.129319 0.172687
v 0.398003 -0.129319 0.000000
v 0.358588 -0.129319 -0.172687
v 0.377042 -0.000000 -0.181574
v 0.260921 -0.000000 -0.327185
v 0.093122 -0.000000 -0.407993
v -0.093122 -0.000000 -0.407993
v -0.260921 -0.000000 -0.327185
v -0.377042 -0.000000 -0.181574
v -0.418485 0.000000 0.000000
v -0.377042 0.000000 0.181574
v -0.260921 0.000000 0.327185
v -0.093122 0.000000 0.407993
v 0.093122 0.000000 0.407993
v 0.260921 0.000000 0.327185
v 0.377042 0.000000 0.181574
v 0.418485 0.000000 0.000000
v 0.377042 -0.000000 -0.181574
v 0.358588 0.129319 -0.172687
v 0.248151 0.129319 -0.311171
v 0.088564 0.129319 -0.388024
v -0.088564 0.129319 -0.388024
v -0.248151 0.129319 -0.311171
v -0.358588 0.129319 -0.172687
v -0.398003 0.129319 -0.000000
v -0.358588 0.129319 0.172687
v -0.248151 0.129319 0.311171
v -0.088564 0.129319 0.388024
v 0.088564 0.129319 0.388024
v 0.248151 0.129319 0.311171
v 0.358588 0.129319 0.172687
v 0.398003 0.129319 -0.000000
v 0.358588 0.129319 -0.172687
v 0.305034 0.245979 -0.146896
v 0.211090 0.245979 -0.264698
v 0.075337 0.245979 -0.330073
v -0.075337 0.245979 -0.330073
v -0.211090 0.245979 -0.264698
v -0.305033 0.245979 -0.146896
v -0.338562 0.245979 -0.000000
v -0.305033 0.245979 0.146896
v -0.211090 0.245979 0.264698
v -0.075337 0.245979 0.330073
v 0.075337 0.245979 0.330073
v 0.211090 0.245979 0.264698
v 0.305033 0.245979 0.146896
v 0.338562 0.245979 -0.000000
v 0.305034 0.245979 -0.146896
v 0.221620 0.338562 -0.106726
v 0.153366 0.338562 -0.192314
v 0.054736 0.338562 -0.239812
v -0.054736 0.338562 -0.239812
v -0.153366 0.338562 -0.192314
v -0.221620 0.338562 -0.106726
v -0.245979 0.338562 -0.000000
v -0.221620 0.338562 0.106726
v -0.153366 0.338562 0.192314
v -0.054736 0.338562 0.239812
v 0.054736 0.338562 0.239812
v 0.153366 0.338562 0.192314
v 0.221620 0.338562 0.106726
v 0.245979 0.338562 -0.000000
v 0.221620 0.338562 -0.106726
v 0.116512 0.398003 -0.056109
v 0.080629 0.398003 -0.101106
v 0.028776 0.398003 -0.126077
v -0.028776 0.398003 -0.126077
v -0.080629 0.398003 -0.101106
v -0.116512 0.398003 -0.056109
v -0.129319 0.398003 -0.000000
v -0.116512 0.398003 0.056109
v -0.080629 0.398003 0.101106
v -0.028776 0.398003 0.126077
v 0.028776 0.398003 0.126077
v 0.080629 0.398003 0.101106
v 0.116512 0.398003 0.056109
v 0.129319 0.398003 -0.000000
v 0.116512 0.398003 -0.056109
v 0.080629 -0.398003 -0.101106
v 0.116512 -0.398003 -0.056109
v 0.000000 -0.418485 0.000000
v 0.028776 -0.398003 -0.126077
v 0.000000 -0.418485 0.000000
v -0.028776 -0.398003 -0.126077
v 0.000000 -0.418485 0.000000
v -0.080629 -0.398003 -0.101106
v 0.000000 -0.418485 0.000000
v -0.116512 -0.398003 -0.056109
v 0.000000 -0.418485 0.000000
v -0.129319 -0.398003 0.000000
v 0.000000 -0.418485 0.000000
v -0.116512 -0.398003 0.056109
v 0.000000 -0.418485 0.000000
v -0.080629 -0.398003 0.101106
v 0.000000 -0.418485 0.000000
v -0.028776 -0.398003 0.126077
v 0.000000 -0.418485 0.000000
v 0.028776 -0.398003 0.126077
v 0.000000 -0.418485 0.000000
v 0.080629 -0.398003 0.101106
v 0.000000 -0.418485 0.000000
v 0.116512 -0.398003 0.056109
v 0.000000 -0.418485 0.000000
v 0.129319 -0.398003 0.000000
v 0.000000 -0.418485 0.000000
v 0.116512 -0.398003 -0.056109
v 0.000000 -0.418485 0.000000
v 0.116512 0.398003 -0.056109
v 0.080629 0.398003 -0.101106
v 0.000000 0.418485 -0.000000
v 0.028776 0.398003 -0.126077
v 0.000000 0.418485 -0.000000
v -0.028776 0.398003 -0.126077
v 0.000000 0.418485 -0.000000
v -0.080629 0.398003 -0.101106
v 0.000000 0.418485 -0.000000
v -0.116512 0.398003 -0.056109
v 0.000000 0.418485 -0.000000
v -0.129319 0.398003 -0.000000
v 0.000000 0.418485 -0.000000
v -0.116512 0.398003 0.056109
v 0.000000 0.418485 -0.000000
v -0.080629 0.398003 0.101106
v 0.000000 0.418485 -0.000000
v -0.028776 0.398003 0.126077
v 0.000000 0.418485 -0.000000
v 0.028776 0.398003 0.126077
v 0.000000 0.418485 -0.000000
v 0.080629 0.398003 0.101106
v 0.000000 0.418485 -0.000000
v 0.116512 0.398003 0.056109
v 0.000000 0.418485 -0.000000
v 0.129319 0.398003 -0.000000
v 0.000000 0.418485 -0.000000
v 0.116512 0.398003 -0.056109
v 0.000000 0.418485 -0.000000
vn 0.2781 -0.9512 -0.1340
vn 0.1925 -0.9511 -0.2414
vn 0.5291 -0.8094 -0.2549
vn 0.3662 -0.8094 -0.4592
vn 0.0687 -0.9511 -0.3010
vn 0.1307 -0.8094 -0.5726
vn -0.0687 -0.9511 -0.3010
vn -0.1307 -0.8094 -0.5726
vn -0.1925 -0.9511 -0.2414
vn -0.3662 -0.8094 -0.4592
vn -0.2781 -0.9512 -0.1339
vn -0.5291 -0.8094 -0.2548
vn -0.3087 -0.9512 -0.0000
vn -0.5873 -0.8094 -0.0000
vn -0.2781 -0.9512 0.1339
vn -0.5291 -0.8094 0.2548
vn -0.1925 -0.9511 0.2414
vn -0.3662 -0.8094 0.4592
vn -0.0687 -0.9511 0.3010
vn -0.1307 -0.8094 0.5726
vn 0.0687 -0.9511 0.3010
vn 0.1307 -0.8094 0.5726
vn 0.1925 -0.9511 0.2414
vn 0.3662 -0.8094 0.4592
vn 0.2781 -0.9512 0.1339
vn 0.5291 -0.8094 0.2548
vn 0.3087 -0.9512 -0.0000
vn 0.5873 -0.8094 -0.0000
vn 0.2781 -0.9512 -0.1339
vn 0.5292 -0.8094 -0.2547
vn 0.7286 -0.5882 -0.3510
vn 0.5042 -0.5882 -0.6323
vn 0.1799 -0.5882 -0.7884
vn -0.1799 -0.5882 -0.7884
vn -0.5042 -0.5882 -0.6323
vn -0.7286 -0.5882 -0.3509
vn -0.8087 -0.5882 -0.0000
vn -0.7286 -0.5882 0.3509
vn -0.5042 -0.5882 0.6323
vn -0.1799 -0.5882 0.7884
vn 0.1799 -0.5882 0.7884
vn 0.5042 -0.5882 0.6323
vn 0.7286 -0.5882 0.3509
vn 0.8087 -0.5882 -0.0000
vn 0.7286 -0.5883 -0.3508
vn 0.8567 -0.3094 -0.4126
vn 0.5929 -0.3094 -0.7435
vn 0.2116 -0.3094 -0.9271
vn -0.2116 -0.3094 -0.9271
vn -0.5929 -0.3094 -0.7435
vn -0.8568 -0.3094 -0.4126
vn -0.9509 -0.3094 -0.0000
vn -0.8568 -0.3093 0.4126
vn -0.5929 -0.3094 0.7435
vn -0.2116 -0.3094 0.9271
vn 0.2116 -0.3094 0.9271
vn 0.5929 -0.3094 0.7435
vn 0.8568 -0.3094 0.4126
vn 0.9510 -0.3093 -0.0000
vn 0.8568 -0.3094 -0.4126
vn 0.9010 -0.0000 -0.4339
vn 0.6235 -0.0000 -0.7818
vn 0.2225 -0.0000 -0.9749
vn -0.2225 -0.0000 -0.9749
vn -0.6235 -0.0000 -0.7818
vn -0.9010 -0.0000 -0.4339
vn -1.0000 -0.0000 -0.0000
vn -0.9010 -0.0000 0.4339
vn -0.6235 -0.0000 0.7818
vn -0.2225 -0.0000 0.9749
vn 0.2225 -0.0000 0.9749
vn 0.6235 -0.0000 0.7818
vn 0.9010 -0.0000 0.4339
vn 1.0000 -0.0000 -0.0000
vn 0.9010 -0.0000 -0.4338
vn 0.8568 0.3094 -0.4126
vn 0.5929 0.3094 -0.7435
vn 0.2116 0.3094 -0.9271
vn -0.2116 0.3094 -0.9271
vn -0.5929 0.3094 -0.7435
vn -0.8568 0.3094 -0.4126
vn -0.9509 0.3094 -0.0000
vn -0.8568 0.3094 0.4126
vn -0.5929 0.3094 0.7435
vn -0.2116 0.3093 0.9271
vn 0.2116 0.3094 0.9271
vn 0.5929 0.3094 0.7435
vn 0.8568 0.3094 0.4126
vn 0.9509 0.3094 -0.0000
vn 0.7286 0.5883 -0.3509
vn 0.5042 0.5882 -0.6323
vn 0.1799 0.5882 -0.7884
vn -0.1799 0.5882 -0.7884
vn -0.5042 0.5882 -0.6323
vn -0.7286 0.5882 -0.3509
vn -0.8087 0.5882 -0.0000
vn -0.7286 0.5882 0.3509
vn -0.5042 0.5882 0.6323
vn -0.1799 0.5882 0.7884
vn 0.1799 0.5882 0.7884
vn 0.5042 0.5882 0.6323
vn 0.7286 0.5882 0.3509
vn 0.8087 0.5882 -0.0000
vn 0.7286 0.5882 -0.3509
vn 0.5291 0.8094 -0.2549
vn 0.3662 0.8094 -0.4592
vn 0.1307 0.8094 -0.5726
vn -0.1307 0.8094 -0.5726
vn -0.3662 0.8094 -0.4592
vn -0.5291 0.8094 -0.2548
vn -0.5873 0.8094 -0.0000
vn -0.5291 0.8094 0.2548
vn -0.3662 0.8094 0.4592
vn -0.1307 0.8094 0.5726
vn 0.1307 0.8094 0.5726
vn 0.3662 0.8094 0.4592
vn 0.5291 0.8094 0.2548
vn 0.5873 0.8094 -0.0000
vn 0.5292 0.8093 -0.2547
vn 0.2781 0.9512 -0.1340
vn 0.1925 0.9511 -0.2414
vn 0.0687 0.9511 -0.3010
vn -0.0687 0.9511 -0.3010
vn -0.1925 0.9511 -0.2414
vn -0.2781 0.9512 -0.1339
vn -0.3087 0.9512 -0.0000
vn -0.2781 0.9512 0.1339
vn -0.1925 0.9511 0.2414
vn -0.0687 0.9511 0.3010
vn 0.0687 0.9511 0.3010
vn 0.1925 0.9511 0.2414
vn 0.2781 0.9512 0.1339
vn 0.3087 0.9512 -0.0000
vn 0.2781 0.9512 -0.1339
vn 0.1924 -0.9512 -0.2413
vn -0.0000 -1.0000 -0.0000
vn 0.0687 -0.9512 -0.3009
vn -0.0687 -0.9512 -0.3009
vn -0.1924 -0.9512 -0.2413
vn -0.3086 -0.9512 -0.0000
vn -0.1924 -0.9512 0.2413
vn -0.0687 -0.9512 0.3009
vn 0.0687 -0.9512 0.3009
vn 0.1924 -0.9512 0.2413
vn 0.3086 -0.9512 -0.0000
vn 0.1924 0.9512 -0.2413
vn -0.0000 1.0000 -0.0000
vn 0.0687 0.9512 -0.3009
vn -0.0687 0.9512 -0.3009
vn -0.1924 0.9512 -0.2413
vn -0.3086 0.9512 -0.0000
vn -0.1924 0.9512 0.2413
vn -0.0687 0.9512 0.3009
vn 0.0687 0.9512 0.3009
vn 0.1924 0.9512 0.2413
vn 0.3086 0.9512 -0.0000
vt 0.000000 0.100000
vt 0.071429 0.100000
vt 0.000000 0.200000
vt 0.071429 0.200000
vt 0.142857 0.100000
vt 0.142857 0.200000
vt 0.214286 0.100000
vt 0.214286 0.200000
vt 0.285714 0.100000
vt 0.285714 0.200000
vt 0.357143 0.100000
vt 0.357143 0.200000
vt 0.428571 0.100000
vt 0.428571 0.200000
vt 0.500000 0.100000
vt 0.500000 0.200000
vt 0.571429 0.100000
vt 0.571429 0.200000
vt 0.642857 0.100000
vt 0.642857 0.200000
vt 0.714286 0.100000
vt 0.714286 0.200000
vt 0.785714 0.100000
vt 0.785714 0.200000
vt 0.857143 0.100000
vt 0.857143 0.200000
vt 0.928572 0.100000
vt 0.928572 0.200000
vt 1.000000 0.100000
vt 1.000000 0.200000
vt 0.000000 0.300000
vt 0.071429 0.300000
vt 0.142857 0.300000
vt 0.214286 0.300000
vt 0.285714 0.300000
vt 0.357143 0.300000
vt 0.428571 0.300000
vt 0.500000 0.300000
vt 0.571429 0.300000
vt 0.642857 0.300000
vt 0.714286 0.300000
vt 0.785714 0.300000
vt 0.857143 0.300000
vt 0.928572 0.300000
vt 1.000000 0.300000
vt 0.000000 0.400000
vt 0.071429 0.400000
vt 0.142857 0.400000
vt 0.214286 0.400000
vt 0.285714 0.400000
vt 0.357143 0.400000
vt 0.428571 0.400000
vt 0.500000 0.400000
vt 0.571429 0.400000
vt 0.642857 0.400000
vt 0.714286 0.400000
vt 0.785714 0.400000
vt 0.857143 0.400000
vt 0.928572 0.400000
vt 1.000000 0.400000
vt 0.000000 0.500000
vt 0.071429 0.500000
vt 0.142857 0.500000
vt 0.214286 0.500000
vt 0.285714 0.500000
vt 0.357143 0.500000
vt 0.428571 0.500000
vt 0.500000 0.500000
vt 0.571429 0.500000
vt 0.642857 0.500000
vt 0.714286 0.500000
vt 0.785714 0.500000
vt 0.857143 0.500000
vt 0.928572 0.500000
vt 1.000000 0.500000
vt 0.000000 0.600000
vt 0.071429 0.600000
vt 0.142857 0.600000
vt 0.214286 0.600000
vt 0.285714 0.600000
vt 0.357143 0.600000
vt 0.428571 0.600000
vt 0.500000 0.600000
vt 0.571429 0.600000
vt 0.642857 0.600000
vt 0.714286 0.600000
vt 0.785714 0.600000
vt 0.857143 0.600000
vt 0.928572 0.600000
vt 1.000000 0.600000
vt 0.000000 0.700000
vt 0.071429 0.700000
vt 0.142857 0.700000
vt 0.214286 0.700000
vt 0.285714 0.700000
vt 0.357143 0.700000
vt 0.428571 0.700000
vt 0.500000 0.700000
vt 0.571429 0.700000
vt 0.642857 0.700000
vt 0.714286 0.700000
vt 0.785714 0.700000
vt 0.857143 0.700000
vt 0.928572 0.700000
vt 1.000000 0.700000
vt 0.000000 0.800000
vt 0.071429 0.800000
vt 0.142857 0.800000
vt 0.214286 0.800000
vt 0.285714 0.800000
vt 0.357143 0.800000
vt 0.428571 0.800000
vt 0.500000 0.800000
vt 0.571429 0.800000
vt 0.642857 0.800000
vt 0.714286 0.800000
vt 0.785714 0.800000
vt 0.857143 0.800000
vt 0.928572 0.800000
vt 1.000000 0.800000
vt 0.000000 0.900000
vt 0.071429 0.900000
vt 0.142857 0.900000
vt 0.214286 0.900000
vt 0.285714 0.900000
vt 0.357143 0.900000
vt 0.428571 0.900000
vt 0.500000 0.900000
vt 0.571429 0.900000
vt 0.642857 0.900000
vt 0.714286 0.900000
vt 0.785714 0.900000
vt 0.857143 0.900000
vt 0.928572 0.900000
vt 1.000000 0.900000
vt 0.035714 0.000000
vt 0.107143 0.000000
vt 0.178571 0.000000
vt 0.250000 0.000000
vt 0.321429 0.000000
vt 0.392857 0.000000
vt 0.464286 0.000000
vt 0.535714 0.000000
vt 0.607143 0.000000
vt 0.678571 0.000000
vt 0.750000 0.000000
vt 0.821429 0.000000
vt 0.892857 0.000000
vt 0.964286 0.000000
vt 0.035714 1.000000
vt 0.107143 1.000000
vt 0.178571 1.000000
vt 0.250000 1.000000
vt 0.321429 1.000000
vt 0.392857 1.000000
vt 0.464286 1.000000
vt 0.535714 1.000000
vt 0.607143 1.000000
vt 0.678571 1.000000
vt 0.750000 1.000000
vt 0.821429 1.000000
vt 0.892857 1.000000
vt 0.964286 1.000000
s 1
usemtl mt_Teniisball_Yellow_mat.003
f 1/1/1 2/2/2 3/3/3
f 2/2/2 4/4/4 3/3/3
f 2/2/2 5/5/5 4/4/4
f 5/5/5 6/6/6 4/4/4
f 5/5/5 7/7/7 6/6/6
f 7/7/7 8/8/8 6/6/6
f 7/7/7 9/9/9 8/8/8
f 9/9/9 10/10/10 8/8/8
f 9/9/9 11/11/11 10/10/10
f 11/11/11 12/12/12 10/10/10
f 11/11/11 13/13/13 12/12/12
f 13/13/13 14/14/14 12/12/12
f 13/13/13 15/15/15 14/14/14
f 15/15/15 16/16/16 14/14/14
f 15/15/15 17/17/17 16/16/16
f 17/17/17 18/18/18 16/16/16
f 17/17/17 19/19/19 18/18/18
f 19/19/19 20/20/20 18/18/18
f 19/19/19 21/21/21 20/20/20
f 21/21/21 22/22/22 20/20/20
f 21/21/21 23/23/23 22/22/22
f 23/23/23 24/24/24 22/22/22
f 23/23/23 25/25/25 24/24/24
f 25/25/25 26/26/26 24/24/24
f 25/25/25 27/27/27 26/26/26
f 27/27/27 28/28/28 26/26/26
f 27/27/27 29/29/29 28/28/28
f 29/29/29 30/30/30 28/28/28
f 3/3/3 4/4/4 31/31/31
f 4/4/4 32/32/32 31/31/31
f 4/4/4 6/6/6 32/32/32
f 6/6/6 33/33/33 32/32/32
f 6/6/6 8/8/8 33/33/33
f 8/8/8 34/34/34 33/33/33
f 8/8/8 10/10/10 34/34/34
f 10/10/10 35/35/35 34/34/34
f 10/10/10 12/12/12 35/35/35
f 12/12/12 36/36/36 35/35/35
f 12/12/12 14/14/14 36/36/36
f 14/14/14 37/37/37 36/36/36
f 14/14/14 16/16/16 37/37/37
f 16/16/16 38/38/38 37/37/37
f 16/16/16 18/18/18 38/38/38
f 18/18/18 39/39/39 38/38/38
f 18/18/18 20/20/20 39/39/39
f 20/20/20 40/40/40 39/39/39
f 20/20/20 22/22/22 40/40/40
f 22/22/22 41/41/41 40/40/40
f 22/22/22 24/24/24 41/41/41
f 24/24/24 42/42/42 41/41/41
f 24/24/24 26/26/26 42/42/42
f 26/26/26 43/43/43 42/42/42
f 26/26/26 28/28/28 43/43/43
f 28/28/28 44/44/44 43/43/43
f 28/28/28 30/30/30 44/44/44
f 30/30/30 45/45/45 44/44/44
f 31/31/31 32/32/32 46/46/46
f 32/32/32 47/47/47 46/46/46
f 32/32/32 33/33/33 47/47/47
f 33/33/33 48/48/48 47/47/47
f 33/33/33 34/34/34 48/48/48
f 34/34/34 49/49/49 48/48/48
f 34/34/34 35/35/35 49/49/49
f 35/35/35 50/50/50 49/49/49
f 35/35/35 36/36/36 50/50/50
f 36/36/36 51/51/51 50/50/50
f 36/36/36 37/37/37 51/51/51
f 37/37/37 52/52/52 51/51/51
f 37/37/37 38/38/38 52/52/52
f 38/38/38 53/53/53 52/52/52
f 38/38/38 39/39/39 53/53/53
f 39/39/39 54/54/54 53/53/53
f 39/39/39 40/40/40 54/54/54
f 40/40/40 55/55/55 54/54/54
f 40/40/40 41/41/41 55/55/55
f 41/41/41 56/56/56 55/55/55
f 41/41/41 42/42/42 56/56/56
f 42/42/42 57/57/57 56/56/56
f 42/42/42 43/43/43 57/57/57
f 43/43/43 58/58/58 57/57/57
f 43/43/43 44/44/44 58/58/58
f 44/44/44 59/59/59 58/58/58
f 44/44/44 45/45/45 59/59/59
f 45/45/45 60/60/60 59/59/59
f 46/46/46 47/47/47 61/61/61
f 47/47/47 62/62/62 61/61/61
f 47/47/47 48/48/48 62/62/62
f 48/48/48 63/63/63 62/62/62
f 48/48/48 49/49/49 63/63/63
f 49/49/49 64/64/64 63/63/63
f 49/49/49 50/50/50 64/64/64
f 50/50/50 65/65/65 64/64/64
f 50/50/50 51/51/51 65/65/65
f 51/51/51 66/66/66 65/65/65
f 51/51/51 52/52/52 66/66/66
f 52/52/52 67/67/67 66/66/66
f 52/52/52 53/53/53 67/67/67
f 53/53/53 68/68/68 67/67/67
f 53/53/53 54/54/54 68/68/68
f 54/54/54 69/69/69 68/68/68
f 54/54/54 55/55/55 69/69/69
f 55/55/55 70/70/70 69/69/69
f 55/55/55 56/56/56 70/70/70
f 56/56/56 71/71/71 70/70/70
f 56/56/56 57/57/57 71/71/71
f 57/57/57 72/72/72 71/71/71
f 57/57/57 58/58/58 72/72/72
f 58/58/58 73/73/73 72/72/72
f 58/58/58 59/59/59 73/73/73
f 59/59/59 74/74/74 73/73/73
f 59/59/59 60/60/60 74/74/74
f 60/60/60 75/75/75 74/74/74
f 61/61/61 62/62/62 76/76/76
f 62/62/62 77/77/77 76/76/76
f 62/62/62 63/63/63 77/77/77
f 63/63/63 78/78/78 77/77/77
f 63/63/63 64/64/64 78/78/78
f 64/64/64 79/79/79 78/78/78
f 64/64/64 65/65/65 79/79/79
f 65/65/65 80/80/80 79/79/79
f 65/65/65 66/66/66 80/80/80
f 66/66/66 81/81/81 80/80/80
f 66/66/66 67/67/67 81/81/81
f 67/67/67 82/82/82 81/81/81
f 67/67/67 68/68/68 82/82/82
f 68/68/68 83/83/83 82/82/82
f 68/68/68 69/69/69 83/83/83
f 69/69/69 84/84/84 83/83/83
f 69/69/69 70/70/70 84/84/84
f 70/70/70 85/85/85 84/84/84
f 70/70/70 71/71/71 85/85/85
f 71/71/71 86/86/86 85/85/85
f 71/71/71 72/72/72 86/86/86
f 72/72/72 87/87/87 86/86/86
f 72/72/72 73/73/73 87/87/87
f 73/73/73 88/88/88 87/87/87
f 73/73/73 74/74/74 88/88/88
f 74/74/74 89/89/89 88/88/88
f 74/74/74 75/75/75 89/89/89
f 75/75/75 90/90/76 89/89/89
f 76/76/76 77/77/77 91/91/90
f 77/77/77 92/92/91 91/91/90
f 77/77/77 78/78/78 92/92/91
f 78/78/78 93/93/92 92/92/91
f 78/78/78 79/79/79 93/93/92
f 79/79/79 94/94/93 93/93/92
f 79/79/79 80/80/80 94/94/93
f 80/80/80 95/95/94 94/94/93
f 80/80/80 81/81/81 95/95/94
f 81/81/81 96/96/95 95/95/94
f 81/81/81 82/82/82 96/96/95
f 82/82/82 97/97/96 96/96/95
f 82/82/82 83/83/83 97/97/96
f 83/83/83 98/98/97 97/97/96
f 83/83/83 84/84/84 98/98/97
f 84/84/84 99/99/98 98/98/97
f 84/84/84 85/85/85 99/99/98
f 85/85/85 100/100/99 99/99/98
f 85/85/85 86/86/86 100/100/99
f 86/86/86 101/101/100 100/100/99
f 86/86/86 87/87/87 101/101/100
f 87/87/87 102/102/101 101/101/100
f 87/87/87 88/88/88 102/102/101
f 88/88/88 103/103/102 102/102/101
f 88/88/88 89/89/89 103/103/102
f 89/89/89 104/104/103 103/103/102
f 89/89/89 90/90/76 104/104/103
f 90/90/76 105/105/104 104/104/103
f 91/91/90 92/92/91 106/106/105
f 92/92/91 107/107/106 106/106/105
f 92/92/91 93/93/92 107/107/106
f 93/93/92 108/108/107 107/107/106
f 93/93/92 94/94/93 108/108/107
f 94/94/93 109/109/108 108/108/107
f 94/94/93 95/95/94 109/109/108
f 95/95/94 110/110/109 109/109/108
f 95/95/94 96/96/95 110/110/109
f 96/96/95 111/111/110 110/110/109
f 96/96/95 97/97/96 111/111/110
f 97/97/96 112/112/111 111/111/110
f 97/97/96 98/98/97 112/112/111
f 98/98/97 113/113/112 112/112/111
f 98/98/97 99/99/98 113/113/112
f 99/99/98 114/114/113 113/113/112
f 99/99/98 100/100/99 114/114/113
f 100/100/99 115/115/114 114/114/113
f 100/100/99 101/101/100 115/115/114
f 101/101/100 116/116/115 115/115/114
f 101/101/100 102/102/101 116/116/115
f 102/102/101 117/117/116 116/116/115
f 102/102/101 103/103/102 117/117/116
f 103/103/102 118/118/117 117/117/116
f 103/103/102 104/104/103 118/118/117
f 104/104/103 119/119/118 118/118/117
f 104/104/103 105/105/104 119/119/118
f 105/105/104 120/120/119 119/119/118
f 106/106/105 107/107/106 121/121/120
f 107/107/106 122/122/121 121/121/120
f 107/107/106 108/108/107 122/122/121
f 108/108/107 123/123/122 122/122/121
f 108/108/107 109/109/108 123/123/122
f 109/109/108 124/124/123 123/123/122
f 109/109/108 110/110/109 124/124/123
f 110/110/109 125/125/124 124/124/123
f 110/110/109 111/111/110 125/125/124
f 111/111/110 126/126/125 125/125/124
f 111/111/110 112/112/111 126/126/125
f 112/112/111 127/127/126 126/126/125
f 112/112/111 113/113/112 127/127/126
f 113/113/112 128/128/127 127/127/126
f 113/113/112 114/114/113 128/128/127
f 114/114/113 129/129/128 128/128/127
f 114/114/113 115/115/114 129/129/128
f 115/115/114 130/130/129 129/129/128
f 115/115/114 116/116/115 130/130/129
f 116/116/115 131/131/130 130/130/129
f 116/116/115 117/117/116 131/131/130
f 117/117/116 132/132/131 131/131/130
f 117/117/116 118/118/117 132/132/131
f 118/118/117 133/133/132 132/132/131
f 118/118/117 119/119/118 133/133/132
f 119/119/118 134/134/133 133/133/132
f 119/119/118 120/120/119 134/134/133
f 120/120/119 135/135/134 134/134/133
f 136/2/135 137/1/29 138/136/136
f 139/5/137 136/2/135 140/137/136
f 141/7/138 139/5/137 142/138/136
f 143/9/139 141/7/138 144/139/136
f 145/11/11 143/9/139 146/140/136
f 147/13/140 145/11/11 148/141/136
f 149/15/15 147/13/140 150/142/136
f 151/17/141 149/15/15 152/143/136
f 153/19/142 151/17/141 154/144/136
f 155/21/143 153/19/142 156/145/136
f 157/23/144 155/21/143 158/146/136
f 159/25/25 157/23/144 160/147/136
f 161/27/145 159/25/25 162/148/136
f 163/29/29 161/27/145 164/149/136
f 165/121/134 166/122/146 167/150/147
f 166/122/146 168/123/148 169/151/147
f 168/123/148 170/124/149 171/152/147
f 170/124/149 172/125/150 173/153/147
f 172/125/150 174/126/125 175/154/147
f 174/126/125 176/127/151 177/155/147
f 176/127/151 178/128/127 179/156/147
f 178/128/127 180/129/152 181/157/147
f 180/129/152 182/130/153 183/158/147
f 182/130/153 184/131/154 185/159/147
f 184/131/154 186/132/155 187/160/147
f 186/132/155 188/133/132 189/161/147
f 188/133/132 190/134/156 191/162/147
f 190/134/156 192/135/134 193/163/147
