# Blender 4.1.1
# www.blender.org
mtllib GreenBall.mtl
o vsn_mesh_0_
v 0.116512 -0.398003 -0.056109
v 0.080629 -0.398003 -0.101106
v 0.221620 -0.338562 -0.106726
v 0.153366 -0.338562 -0.192314
v 0.028776 -0.398003 -0.126077
v 0.054736 -0.338562 -0.239812
v -0.028776 -0.398003 -0.126077
v -0.054736 -0.338562 -0.239812
v -0.080629 -0.398003 -0.101106
v -0.153366 -0.338562 -0.192314
v -0.116512 -0.398003 -0.056109
v -0.221620 -0.338562 -0.106726
v -0.129319 -0.398003 0.000000
v -0.245979 -0.338562 0.000000
v -0.116512 -0.398003 0.056109
v -0.221620 -0.338562 0.106726
v -0.080629 -0.398003 0.101106
v -0.153366 -0.338562 0.192314
v -0.028776 -0.398003 0.126077
v -0.054736 -0.338562 0.239812
v 0.028776 -0.398003 0.126077
v 0.054736 -0.338562 0.239812
v 0.080629 -0.398003 0.101106
v 0.153366 -0.338562 0.192314
v 0.116512 -0.398003 0.056109
v 0.221620 -0.338562 0.106726
v 0.129319 -0.398003 0.000000
v 0.245979 -0.338562 0.000000
v 0.116512 -0.398003 -0.056109
v 0.221620 -0.338562 -0.106726
v 0.305034 -0.245979 -0.146896
v 0.211090 -0.245979 -0.264698
v 0.075337 -0.245979 -0.330073
v -0.075337 -0.245979 -0.330073
v -0.211090 -0.245979 -0.264698
v -0.305033 -0.245979 -0.146896
v -0.338562 -0.245979 0.000000
v -0.305033 -0.245979 0.146896
v -0.211090 -0.245979 0.264698
v -0.075337 -0.245979 0.330073
v 0.075337 -0.245979 0.330073
v 0.211090 -0.245979 0.264698
v 0.305033 -0.245979 0.146896
v 0.338562 -0.245979 0.000000
v 0.305034 -0.245979 -0.146896
v 0.358588 -0.129319 -0.172687
v 0.248151 -0.129319 -0.311171
v 0.088564 -0.129319 -0.388024
v -0.088564 -0.129319 -0.388024
v -0.248151 -0.129319 -0.311171
v -0.358588 -0.129319 -0.172687
v -0.398003 -0.129319 0.000000
v -0.358588 -0.129319 0.172687
v -0.248151 -0.129319 0.311171
v -0.088564 -0.129319 0.388024
v 0.088564 -0.129319 0.388024
v 0.248151 -0.129319 0.311171
v 0.358588 -0.129319 0.172687
v 0.398003 -0.129319 0.000000
v 0.358588 -0.129319 -0.172687
v 0.377042 -0.000000 -0.181574
v 0.260921 -0.000000 -0.327185
v 0.093122 -0.000000 -0.407993
v -0.093122 -0.000000 -0.407993
v -0.260921 -0.000000 -0.327185
v -0.377042 -0.000000 -0.181574
v -0.418485 0.000000 0.000000
v -0.377042 0.000000 0.181574
v -0.260921 0.000000 0.327185
v -0.093122 0.000000 0.407993
v 0.093122 0.000000 0.407993
v 0.260921 0.000000 0.327185
v 0.377042 0.000000 0.181574
v 0.418485 0.000000 0.000000
v 0.377042 -0.000000 -0.181574
v 0.358588 0.129319 -0.172687
v 0.248151 0.129319 -0.311171
v 0.088564 0.129319 -0.388024
v -0.088564 0.129319 -0.388024
v -0.248151 0.129319 -0.311171
v -0.358588 0.129319 -0.172687
v -0.398003 0.129319 -0.000000
v -0.358588 0.129319 0.172687
v -0.248151 0.129319 0.311171
v -0.088564 0.129319 0.388024
v 0.088564 0.129319 0.388024
v 0.248151 0.129319 0.311171
v 0.358588 0.129319 0.172687
v 0.398003 0.129319 -0.000000
v 0.358588 0.129319 -0.172687
v 0.305034 0.245979 -0.146896
v 0.211090 0.245979 -0.264698
v 0.075337 0.245979 -0.330073
v -0.075337 0.245979 -0.330073
v -0.211090 0.245979 -0.264698
v -0.305033 0.245979 -0.146896
v -0.338562 0.245979 -0.000000
v -0.305033 0.245979 0.146896
v -0.211090 0.245979 0.264698
v -0.075337 0.245979 0.330073
v 0.075337 0.245979 0.330073
v 0.211090 0.245979 0.264698
v 0.305033 0.245979 0.146896
v 0.338562 0.245979 -0.000000
v 0.305034 0.245979 -0.146896
v 0.221620 0.338562 -0.106726
v 0.153366 0.338562 -0.192314
v 0.054736 0.338562 -0.239812
v -0.054736 0.338562 -0.239812
v -0.153366 0.338562 -0.192314
v -0.221620 0.338562 -0.106726
v -0.245979 0.338562 -0.000000
v -0.221620 0.338562 0.106726
v -0.153366 0.338562 0.192314
v -0.054736 0.338562 0.239812
v 0.054736 0.338562 0.239812
v 0.153366 0.338562 0.192314
v 0.221620 0.338562 0.106726
v 0.245979 0.338562 -0.000000
v 0.221620 0.338562 -0.106726
v 0.116512 0.398003 -0.056109
v 0.080629 0.398003 -0.101106
v 0.028776 0.398003 -0.126077
v -0.028776 0.398003 -0.126077
v -0.080629 0.398003 -0.101106
v -0.116512 0.398003 -0.056109
v -0.129319 0.398003 -0.000000
v -0.116512 0.398003 0.056109
v -0.080629 0.398003 0.101106
v -0.028776 0.398003 0.126077
v 0.028776 0.398003 0.126077
v 0.080629 0.398003 0.101106
v 0.116512 0.398003 0.056109
v 0.129319 0.398003 -0.000000
v 0.116512 0.398003 -0.056109
v 0.080629 -0.398003 -0.101106
v 0.116512 -0.398003 -0.056109
v 0.000000 -0.418485 0.000000
v 0.028776 -0.398003 -0.126077
v 0.000000 -0.418485 0.000000
v -0.028776 -0.398003 -0.126077
v 0.000000 -0.418485 0.000000
v -0.080629 -0.398003 -0.101106
v 0.000000 -0.418485 0.000000
v -0.116512 -0.398003 -0.056109
v 0.000000 -0.418485 0.000000
v -0.129319 -0.398003 0.000000
v 0.000000 -0.418485 0.000000
v -0.116512 -0.398003 0.056109
v 0.000000 -0.418485 0.000000
v -0.080629 -0.398003 0.101106
v 0.000000 -0.418485 0.000000
v -0.028776 -0.398003 0.126077
v 0.000000 -0.418485 0.000000
v 0.028776 -0.398003 0.126077
v 0.000000 -0.418485 0.000000
v 0.080629 -0.398003 0.101106
v 0.000000 -0.418485 0.000000
v 0.116512 -0.398003 0.056109
v 0.000000 -0.418485 0.000000
v 0.129319 -0.398003 0.000000
v 0.000000 -0.418485 0.000000
v 0.116512 -0.398003 -0.056109
v 0.000000 -0.418485 0.000000
v 0.116512 0.398003 -0.056109
v 0.080629 0.398003 -0.101106
v 0.000000 0.418485 -0.000000
v 0.028776 0.398003 -0.126077
v 0.000000 0.418485 -0.000000
v -0.028776 0.398003 -0.126077
v 0.000000 0.418485 -0.000000
v -0.080629 0.398003 -0.101106
v 0.000000 0.418485 -0.000000
v -0.116512 0.398003 -0.056109
v 0.000000 0.418485 -0.000000
v -0.129319 0.398003 -0.000000
v 0.000000 0.418485 -0.000000
v -0.116512 0.398003 0.056109
v 0.000000 0.418485 -0.000000
v -0.080629 0.398003 0.101106
v 0.000000 0.418485 -0.000000
v -0.028776 0.398003 0.126077
v 0.000000 0.418485 -0.000000
v 0.028776 0.398003 0.126077
v 0.000000 0.418485 -0.000000
v 0.080629 0.398003 0.101106
v 0.000000 0.418485 -0.000000
v 0.116512 0.398003 0.056109
v 0.000000 0.418485 -0.000000
v 0.129319 0.398003 -0.000000
v 0.000000 0.418485 -0.000000
v 0.116512 0.398003 -0.056109
v 0.000000 0.418485 -0.000000
vn 0.2781 -0.9512 -0.1340
vn 0.1925 -0.9512 -0.2414
vn 0.5291 -0.8094 -0.2549
vn 0.3662 -0.8094 -0.4592
vn 0.0687 -0.9512 -0.3010
vn 0.1307 -0.8094 -0.5726
vn -0.0687 -0.9512 -0.3010
vn -0.1307 -0.8094 -0.5726
vn -0.1925 -0.9512 -0.2414
vn -0.3662 -0.8094 -0.4592
vn -0.2781 -0.9512 -0.1339
vn -0.5291 -0.8094 -0.2548
vn -0.3087 -0.9512 -0.0000
vn -0.5873 -0.8094 -0.0000
vn -0.2781 -0.9512 0.1339
vn -0.5291 -0.8094 0.2548
vn -0.1925 -0.9512 0.2414
vn -0.3662 -0.8094 0.4592
vn -0.0687 -0.9512 0.3010
vn -0.1307 -0.8094 0.5726
vn 0.0687 -0.9512 0.3010
vn 0.1307 -0.8094 0.5726
vn 0.1925 -0.9512 0.2414
vn 0.3662 -0.8094 0.4592
vn 0.2781 -0.9512 0.1339
vn 0.5291 -0.8094 0.2548
vn 0.3087 -0.9512 -0.0000
vn 0.5873 -0.8094 -0.0000
vn 0.2781 -0.9512 -0.1339
vn 0.5292 -0.8094 -0.2548
vn 0.7286 -0.5882 -0.3509
vn 0.5042 -0.5882 -0.6323
vn 0.1799 -0.5882 -0.7884
vn -0.1799 -0.5882 -0.7884
vn -0.5042 -0.5882 -0.6323
vn -0.7286 -0.5882 -0.3509
vn -0.8087 -0.5882 -0.0000
vn -0.7286 -0.5882 0.3509
vn -0.5042 -0.5882 0.6323
vn -0.1799 -0.5882 0.7884
vn 0.1799 -0.5882 0.7884
vn 0.5042 -0.5882 0.6323
vn 0.7286 -0.5882 0.3509
vn 0.8087 -0.5882 -0.0000
vn 0.7286 -0.5883 -0.3508
vn 0.8568 -0.3094 -0.4126
vn 0.5929 -0.3094 -0.7435
vn 0.2116 -0.3094 -0.9271
vn -0.2116 -0.3094 -0.9271
vn -0.5929 -0.3094 -0.7435
vn -0.8568 -0.3094 -0.4126
vn -0.9509 -0.3094 -0.0000
vn -0.8568 -0.3093 0.4126
vn -0.5929 -0.3094 0.7435
vn -0.2116 -0.3094 0.9271
vn 0.2116 -0.3094 0.9271
vn 0.5929 -0.3094 0.7435
vn 0.8568 -0.3094 0.4126
vn 0.9510 -0.3093 -0.0000
vn 0.9010 -0.0000 -0.4339
vn 0.6235 -0.0000 -0.7818
vn 0.2225 -0.0000 -0.9749
vn -0.2225 -0.0000 -0.9749
vn -0.6235 -0.0000 -0.7818
vn -0.9010 -0.0000 -0.4339
vn -1.0000 -0.0000 -0.0000
vn -0.9010 -0.0000 0.4339
vn -0.6235 -0.0000 0.7818
vn -0.2225 -0.0000 0.9749
vn 0.2225 -0.0000 0.9749
vn 0.6235 -0.0000 0.7818
vn 0.9010 -0.0000 0.4339
vn 1.0000 -0.0000 -0.0000
vn 0.9010 -0.0000 -0.4338
vn 0.8568 0.3094 -0.4126
vn 0.5929 0.3094 -0.7435
vn 0.2116 0.3094 -0.9271
vn -0.2116 0.3094 -0.9271
vn -0.5929 0.3094 -0.7435
vn -0.8568 0.3094 -0.4126
vn -0.9509 0.3094 -0.0000
vn -0.8568 0.3094 0.4126
vn -0.5929 0.3094 0.7435
vn -0.2116 0.3093 0.9271
vn 0.2116 0.3094 0.9271
vn 0.5929 0.3094 0.7435
vn 0.8568 0.3094 0.4126
vn 0.9509 0.3094 -0.0000
vn 0.7286 0.5883 -0.3509
vn 0.5042 0.5882 -0.6323
vn 0.1799 0.5882 -0.7884
vn -0.1799 0.5882 -0.7884
vn -0.5042 0.5882 -0.6323
vn -0.7286 0.5882 -0.3509
vn -0.8087 0.5882 -0.0000
vn -0.7286 0.5882 0.3509
vn -0.5042 0.5882 0.6323
vn -0.1799 0.5882 0.7884
vn 0.1799 0.5882 0.7884
vn 0.5042 0.5882 0.6323
vn 0.7286 0.5882 0.3509
vn 0.8087 0.5882 -0.0000
vn 0.7286 0.5882 -0.3509
vn 0.5291 0.8094 -0.2549
vn 0.3662 0.8094 -0.4592
vn 0.1307 0.8094 -0.5726
vn -0.1307 0.8094 -0.5726
vn -0.3662 0.8094 -0.4592
vn -0.5291 0.8094 -0.2548
vn -0.5873 0.8094 -0.0000
vn -0.5291 0.8094 0.2548
vn -0.3662 0.8094 0.4592
vn -0.1307 0.8094 0.5726
vn 0.1307 0.8094 0.5726
vn 0.3662 0.8094 0.4592
vn 0.5291 0.8094 0.2548
vn 0.5873 0.8094 -0.0000
vn 0.5292 0.8094 -0.2548
vn 0.2781 0.9512 -0.1340
vn 0.1925 0.9512 -0.2414
vn 0.0687 0.9512 -0.3010
vn -0.0687 0.9512 -0.3010
vn -0.1925 0.9512 -0.2414
vn -0.2781 0.9512 -0.1339
vn -0.3087 0.9512 -0.0000
vn -0.2781 0.9512 0.1339
vn -0.1925 0.9512 0.2414
vn -0.0687 0.9512 0.3010
vn 0.0687 0.9512 0.3010
vn 0.1925 0.9512 0.2414
vn 0.2781 0.9512 0.1339
vn 0.3087 0.9512 -0.0000
vn 0.2781 0.9512 -0.1339
vn 0.1924 -0.9512 -0.2413
vn -0.0000 -1.0000 -0.0000
vn 0.0687 -0.9512 -0.3009
vn -0.0687 -0.9512 -0.3009
vn -0.1924 -0.9512 -0.2413
vn -0.3086 -0.9512 -0.0000
vn -0.1924 -0.9512 0.2413
vn -0.0687 -0.9512 0.3009
vn 0.0687 -0.9512 0.3009
vn 0.1924 -0.9512 0.2413
vn 0.3086 -0.9512 -0.0000
vn 0.1924 0.9512 -0.2413
vn -0.0000 1.0000 -0.0000
vn 0.0687 0.9512 -0.3009
vn -0.0687 0.9512 -0.3009
vn -0.1924 0.9512 -0.2413
vn -0.3086 0.9512 -0.0000
vn -0.1924 0.9512 0.2413
vn -0.0687 0.9512 0.3009
vn 0.0687 0.9512 0.3009
vn 0.1924 0.9512 0.2413
vn 0.3086 0.9512 -0.0000
vt 0.000000 0.100000
vt 0.071429 0.100000
vt 0.000000 0.200000
vt 0.071429 0.200000
vt 0.142857 0.100000
vt 0.142857 0.200000
vt 0.214286 0.100000
vt 0.214286 0.200000
vt 0.285714 0.100000
vt 0.285714 0.200000
vt 0.357143 0.100000
vt 0.357143 0.200000
vt 0.428571 0.100000
vt 0.428571 0.200000
vt 0.500000 0.100000
vt 0.500000 0.200000
vt 0.571429 0.100000
vt 0.571429 0.200000
vt 0.642857 0.100000
vt 0.642857 0.200000
vt 0.714286 0.100000
vt 0.714286 0.200000
vt 0.785714 0.100000
vt 0.785714 0.200000
vt 0.857143 0.100000
vt 0.857143 0.200000
vt 0.928572 0.100000
vt 0.928572 0.200000
vt 1.000000 0.100000
vt 1.000000 0.200000
vt 0.000000 0.300000
vt 0.071429 0.300000
vt 0.142857 0.300000
vt 0.214286 0.300000
vt 0.285714 0.300000
vt 0.357143 0.300000
vt 0.428571 0.300000
vt 0.500000 0.300000
vt 0.571429 0.300000
vt 0.642857 0.300000
vt 0.714286 0.300000
vt 0.785714 0.300000
vt 0.857143 0.300000
vt 0.928572 0.300000
vt 1.000000 0.300000
vt 0.000000 0.400000
vt 0.071429 0.400000
vt 0.142857 0.400000
vt 0.214286 0.400000
vt 0.285714 0.400000
vt 0.357143 0.400000
vt 0.428571 0.400000
vt 0.500000 0.400000
vt 0.571429 0.400000
vt 0.642857 0.400000
vt 0.714286 0.400000
vt 0.785714 0.400000
vt 0.857143 0.400000
vt 0.928572 0.400000
vt 1.000000 0.400000
vt 0.000000 0.500000
vt 0.071429 0.500000
vt 0.142857 0.500000
vt 0.214286 0.500000
vt 0.285714 0.500000
vt 0.357143 0.500000
vt 0.428571 0.500000
vt 0.500000 0.500000
vt 0.571429 0.500000
vt 0.642857 0.500000
vt 0.714286 0.500000
vt 0.785714 0.500000
vt 0.857143 0.500000
vt 0.928572 0.500000
vt 1.000000 0.500000
vt 0.000000 0.600000
vt 0.071429 0.600000
vt 0.142857 0.600000
vt 0.214286 0.600000
vt 0.285714 0.600000
vt 0.357143 0.600000
vt 0.428571 0.600000
vt 0.500000 0.600000
vt 0.571429 0.600000
vt 0.642857 0.600000
vt 0.714286 0.600000
vt 0.785714 0.600000
vt 0.857143 0.600000
vt 0.928572 0.600000
vt 1.000000 0.600000
vt 0.000000 0.700000
vt 0.071429 0.700000
vt 0.142857 0.700000
vt 0.214286 0.700000
vt 0.285714 0.700000
vt 0.357143 0.700000
vt 0.428571 0.700000
vt 0.500000 0.700000
vt 0.571429 0.700000
vt 0.642857 0.700000
vt 0.714286 0.700000
vt 0.785714 0.700000
vt 0.857143 0.700000
vt 0.928572 0.700000
vt 1.000000 0.700000
vt 0.000000 0.800000
vt 0.071429 0.800000
vt 0.142857 0.800000
vt 0.214286 0.800000
vt 0.285714 0.800000
vt 0.357143 0.800000
vt 0.428571 0.800000
vt 0.500000 0.800000
vt 0.571429 0.800000
vt 0.642857 0.800000
vt 0.714286 0.800000
vt 0.785714 0.800000
vt 0.857143 0.800000
vt 0.928572 0.800000
vt 1.000000 0.800000
vt 0.000000 0.900000
vt 0.071429 0.900000
vt 0.142857 0.900000
vt 0.214286 0.900000
vt 0.285714 0.900000
vt 0.357143 0.900000
vt 0.428571 0.900000
vt 0.500000 0.900000
vt 0.571429 0.900000
vt 0.642857 0.900000
vt 0.714286 0.900000
vt 0.785714 0.900000
vt 0.857143 0.900000
vt 0.928572 0.900000
vt 1.000000 0.900000
vt 0.035714 0.000000
vt 0.107143 0.000000
vt 0.178571 0.000000
vt 0.250000 0.000000
vt 0.321429 0.000000
vt 0.392857 0.000000
vt 0.464286 0.000000
vt 0.535714 0.000000
vt 0.607143 0.000000
vt 0.678571 0.000000
vt 0.750000 0.000000
vt 0.821429 0.000000
vt 0.892857 0.000000
vt 0.964286 0.000000
vt 0.035714 1.000000
vt 0.107143 1.000000
vt 0.178571 1.000000
vt 0.250000 1.000000
vt 0.321429 1.000000
vt 0.392857 1.000000
vt 0.464286 1.000000
vt 0.535714 1.000000
vt 0.607143 1.000000
vt 0.678571 1.000000
vt 0.750000 1.000000
vt 0.821429 1.000000
vt 0.892857 1.000000
vt 0.964286 1.000000
s 1
usemtl mt_Teniisball_Yellow_mat.002
f 1/1/1 2/2/2 3/3/3
f 2/2/2 4/4/4 3/3/3
f 2/2/2 5/5/5 4/4/4
f 5/5/5 6/6/6 4/4/4
f 5/5/5 7/7/7 6/6/6
f 7/7/7 8/8/8 6/6/6
f 7/7/7 9/9/9 8/8/8
f 9/9/9 10/10/10 8/8/8
f 9/9/9 11/11/11 10/10/10
f 11/11/11 12/12/12 10/10/10
f 11/11/11 13/13/13 12/12/12
f 13/13/13 14/14/14 12/12/12
f 13/13/13 15/15/15 14/14/14
f 15/15/15 16/16/16 14/14/14
f 15/15/15 17/17/17 16/16/16
f 17/17/17 18/18/18 16/16/16
f 17/17/17 19/19/19 18/18/18
f 19/19/19 20/20/20 18/18/18
f 19/19/19 21/21/21 20/20/20
f 21/21/21 22/22/22 20/20/20
f 21/21/21 23/23/23 22/22/22
f 23/23/23 24/24/24 22/22/22
f 23/23/23 25/25/25 24/24/24
f 25/25/25 26/26/26 24/24/24
f 25/25/25 27/27/27 26/26/26
f 27/27/27 28/28/28 26/26/26
f 27/27/27 29/29/29 28/28/28
f 29/29/29 30/30/30 28/28/28
f 3/3/3 4/4/4 31/31/31
f 4/4/4 32/32/32 31/31/31
f 4/4/4 6/6/6 32/32/32
f 6/6/6 33/33/33 32/32/32
f 6/6/6 8/8/8 33/33/33
f 8/8/8 34/34/34 33/33/33
f 8/8/8 10/10/10 34/34/34
f 10/10/10 35/35/35 34/34/34
f 10/10/10 12/12/12 35/35/35
f 12/12/12 36/36/36 35/35/35
f 12/12/12 14/14/14 36/36/36
f 14/14/14 37/37/37 36/36/36
f 14/14/14 16/16/16 37/37/37
f 16/16/16 38/38/38 37/37/37
f 16/16/16 18/18/18 38/38/38
f 18/18/18 39/39/39 38/38/38
f 18/18/18 20/20/20 39/39/39
f 20/20/20 40/40/40 39/39/39
f 20/20/20 22/22/22 40/40/40
f 22/22/22 41/41/41 40/40/40
f 22/22/22 24/24/24 41/41/41
f 24/24/24 42/42/42 41/41/41
f 24/24/24 26/26/26 42/42/42
f 26/26/26 43/43/43 42/42/42
f 26/26/26 28/28/28 43/43/43
f 28/28/28 44/44/44 43/43/43
f 28/28/28 30/30/30 44/44/44
f 30/30/30 45/45/45 44/44/44
f 31/31/31 32/32/32 46/46/46
f 32/32/32 47/47/47 46/46/46
f 32/32/32 33/33/33 47/47/47
f 33/33/33 48/48/48 47/47/47
f 33/33/33 34/34/34 48/48/48
f 34/34/34 49/49/49 48/48/48
f 34/34/34 35/35/35 49/49/49
f 35/35/35 50/50/50 49/49/49
f 35/35/35 36/36/36 50/50/50
f 36/36/36 51/51/51 50/50/50
f 36/36/36 37/37/37 51/51/51
f 37/37/37 52/52/52 51/51/51
f 37/37/37 38/38/38 52/52/52
f 38/38/38 53/53/53 52/52/52
f 38/38/38 39/39/39 53/53/53
f 39/39/39 54/54/54 53/53/53
f 39/39/39 40/40/40 54/54/54
f 40/40/40 55/55/55 54/54/54
f 40/40/40 41/41/41 55/55/55
f 41/41/41 56/56/56 55/55/55
f 41/41/41 42/42/42 56/56/56
f 42/42/42 57/57/57 56/56/56
f 42/42/42 43/43/43 57/57/57
f 43/43/43 58/58/58 57/57/57
f 43/43/43 44/44/44 58/58/58
f 44/44/44 59/59/59 58/58/58
f 44/44/44 45/45/45 59/59/59
f 45/45/45 60/60/46 59/59/59
f 46/46/46 47/47/47 61/61/60
f 47/47/47 62/62/61 61/61/60
f 47/47/47 48/48/48 62/62/61
f 48/48/48 63/63/62 62/62/61
f 48/48/48 49/49/49 63/63/62
f 49/49/49 64/64/63 63/63/62
f 49/49/49 50/50/50 64/64/63
f 50/50/50 65/65/64 64/64/63
f 50/50/50 51/51/51 65/65/64
f 51/51/51 66/66/65 65/65/64
f 51/51/51 52/52/52 66/66/65
f 52/52/52 67/67/66 66/66/65
f 52/52/52 53/53/53 67/67/66
f 53/53/53 68/68/67 67/67/66
f 53/53/53 54/54/54 68/68/67
f 54/54/54 69/69/68 68/68/67
f 54/54/54 55/55/55 69/69/68
f 55/55/55 70/70/69 69/69/68
f 55/55/55 56/56/56 70/70/69
f 56/56/56 71/71/70 70/70/69
f 56/56/56 57/57/57 71/71/70
f 57/57/57 72/72/71 71/71/70
f 57/57/57 58/58/58 72/72/71
f 58/58/58 73/73/72 72/72/71
f 58/58/58 59/59/59 73/73/72
f 59/59/59 74/74/73 73/73/72
f 59/59/59 60/60/46 74/74/73
f 60/60/46 75/75/74 74/74/73
f 61/61/60 62/62/61 76/76/75
f 62/62/61 77/77/76 76/76/75
f 62/62/61 63/63/62 77/77/76
f 63/63/62 78/78/77 77/77/76
f 63/63/62 64/64/63 78/78/77
f 64/64/63 79/79/78 78/78/77
f 64/64/63 65/65/64 79/79/78
f 65/65/64 80/80/79 79/79/78
f 65/65/64 66/66/65 80/80/79
f 66/66/65 81/81/80 80/80/79
f 66/66/65 67/67/66 81/81/80
f 67/67/66 82/82/81 81/81/80
f 67/67/66 68/68/67 82/82/81
f 68/68/67 83/83/82 82/82/81
f 68/68/67 69/69/68 83/83/82
f 69/69/68 84/84/83 83/83/82
f 69/69/68 70/70/69 84/84/83
f 70/70/69 85/85/84 84/84/83
f 70/70/69 71/71/70 85/85/84
f 71/71/70 86/86/85 85/85/84
f 71/71/70 72/72/71 86/86/85
f 72/72/71 87/87/86 86/86/85
f 72/72/71 73/73/72 87/87/86
f 73/73/72 88/88/87 87/87/86
f 73/73/72 74/74/73 88/88/87
f 74/74/73 89/89/88 88/88/87
f 74/74/73 75/75/74 89/89/88
f 75/75/74 90/90/75 89/89/88
f 76/76/75 77/77/76 91/91/89
f 77/77/76 92/92/90 91/91/89
f 77/77/76 78/78/77 92/92/90
f 78/78/77 93/93/91 92/92/90
f 78/78/77 79/79/78 93/93/91
f 79/79/78 94/94/92 93/93/91
f 79/79/78 80/80/79 94/94/92
f 80/80/79 95/95/93 94/94/92
f 80/80/79 81/81/80 95/95/93
f 81/81/80 96/96/94 95/95/93
f 81/81/80 82/82/81 96/96/94
f 82/82/81 97/97/95 96/96/94
f 82/82/81 83/83/82 97/97/95
f 83/83/82 98/98/96 97/97/95
f 83/83/82 84/84/83 98/98/96
f 84/84/83 99/99/97 98/98/96
f 84/84/83 85/85/84 99/99/97
f 85/85/84 100/100/98 99/99/97
f 85/85/84 86/86/85 100/100/98
f 86/86/85 101/101/99 100/100/98
f 86/86/85 87/87/86 101/101/99
f 87/87/86 102/102/100 101/101/99
f 87/87/86 88/88/87 102/102/100
f 88/88/87 103/103/101 102/102/100
f 88/88/87 89/89/88 103/103/101
f 89/89/88 104/104/102 103/103/101
f 89/89/88 90/90/75 104/104/102
f 90/90/75 105/105/103 104/104/102
f 91/91/89 92/92/90 106/106/104
f 92/92/90 107/107/105 106/106/104
f 92/92/90 93/93/91 107/107/105
f 93/93/91 108/108/106 107/107/105
f 93/93/91 94/94/92 108/108/106
f 94/94/92 109/109/107 108/108/106
f 94/94/92 95/95/93 109/109/107
f 95/95/93 110/110/108 109/109/107
f 95/95/93 96/96/94 110/110/108
f 96/96/94 111/111/109 110/110/108
f 96/96/94 97/97/95 111/111/109
f 97/97/95 112/112/110 111/111/109
f 97/97/95 98/98/96 112/112/110
f 98/98/96 113/113/111 112/112/110
f 98/98/96 99/99/97 113/113/111
f 99/99/97 114/114/112 113/113/111
f 99/99/97 100/100/98 114/114/112
f 100/100/98 115/115/113 114/114/112
f 100/100/98 101/101/99 115/115/113
f 101/101/99 116/116/114 115/115/113
f 101/101/99 102/102/100 116/116/114
f 102/102/100 117/117/115 116/116/114
f 102/102/100 103/103/101 117/117/115
f 103/103/101 118/118/116 117/117/115
f 103/103/101 104/104/102 118/118/116
f 104/104/102 119/119/117 118/118/116
f 104/104/102 105/105/103 119/119/117
f 105/105/103 120/120/118 119/119/117
f 106/106/104 107/107/105 121/121/119
f 107/107/105 122/122/120 121/121/119
f 107/107/105 108/108/106 122/122/120
f 108/108/106 123/123/121 122/122/120
f 108/108/106 109/109/107 123/123/121
f 109/109/107 124/124/122 123/123/121
f 109/109/107 110/110/108 124/124/122
f 110/110/108 125/125/123 124/124/122
f 110/110/108 111/111/109 125/125/123
f 111/111/109 126/126/124 125/125/123
f 111/111/109 112/112/110 126/126/124
f 112/112/110 127/127/125 126/126/124
f 112/112/110 113/113/111 127/127/125
f 113/113/111 128/128/126 127/127/125
f 113/113/111 114/114/112 128/128/126
f 114/114/112 129/129/127 128/128/126
f 114/114/112 115/115/113 129/129/127
f 115/115/113 130/130/128 129/129/127
f 115/115/113 116/116/114 130/130/128
f 116/116/114 131/131/129 130/130/128
f 116/116/114 117/117/115 131/131/129
f 117/117/115 132/132/130 131/131/129
f 117/117/115 118/118/116 132/132/130
f 118/118/116 133/133/131 132/132/130
f 118/118/116 119/119/117 133/133/131
f 119/119/117 134/134/132 133/133/131
f 119/119/117 120/120/118 134/134/132
f 120/120/118 135/135/133 134/134/132
f 136/2/134 137/1/29 138/136/135
f 139/5/136 136/2/134 140/137/135
f 141/7/137 139/5/136 142/138/135
f 143/9/138 141/7/137 144/139/135
f 145/11/11 143/9/138 146/140/135
f 147/13/139 145/11/11 148/141/135
f 149/15/15 147/13/139 150/142/135
f 151/17/140 149/15/15 152/143/135
f 153/19/141 151/17/140 154/144/135
f 155/21/142 153/19/141 156/145/135
f 157/23/143 155/21/142 158/146/135
f 159/25/25 157/23/143 160/147/135
f 161/27/144 159/25/25 162/148/135
f 163/29/29 161/27/144 164/149/135
f 165/121/133 166/122/145 167/150/146
f 166/122/145 168/123/147 169/151/146
f 168/123/147 170/124/148 171/152/146
f 170/124/148 172/125/149 173/153/146
f 172/125/149 174/126/124 175/154/146
f 174/126/124 176/127/150 177/155/146
f 176/127/150 178/128/126 179/156/146
f 178/128/126 180/129/151 181/157/146
f 180/129/151 182/130/152 183/158/146
f 182/130/152 184/131/153 185/159/146
f 184/131/153 186/132/154 187/160/146
f 186/132/154 188/133/131 189/161/146
f 188/133/131 190/134/155 191/162/146
f 190/134/155 192/135/133 193/163/146
