# Blender 4.1.1
# www.blender.org
mtllib bone.mtl
o _0_0_node
v -0.223942 0.028146 0.094401
v -0.223942 -0.052293 0.094401
v 0.223942 0.028146 0.094401
v 0.223942 -0.052293 0.094401
v -0.223942 -0.052293 -0.094399
v -0.223942 0.028146 -0.094400
v 0.223942 -0.052293 -0.094400
v 0.223942 0.028146 -0.094400
v -0.223942 -0.052293 -0.094399
v -0.246018 -0.052293 -0.127798
v -0.223942 0.028146 -0.094400
v -0.246018 0.032655 -0.127798
v -0.432410 -0.052293 -0.074209
v -0.412015 -0.052293 -0.032433
v -0.432410 0.027574 -0.074209
v -0.412015 0.025395 -0.032433
v -0.384189 -0.052293 0.000000
v -0.412015 -0.052293 0.032435
v -0.384189 0.024068 -0.000000
v -0.412015 0.025395 0.032435
v -0.275348 -0.052293 0.158548
v -0.246018 -0.052293 0.127800
v -0.275348 0.035945 0.158548
v -0.246018 0.032655 0.127800
v -0.223942 -0.052293 0.094401
v -0.223942 0.028146 0.094401
v -0.320797 -0.052293 0.184365
v -0.320797 0.037416 0.184365
v -0.275348 -0.052293 -0.158546
v -0.275348 0.035945 -0.158546
v -0.361805 -0.052293 0.189209
v -0.361805 0.037056 0.189209
v -0.320797 -0.052293 -0.184363
v -0.320797 0.037416 -0.184363
v -0.384189 -0.052293 0.000000
v -0.384189 0.024068 -0.000000
v -0.223942 -0.052293 0.094401
v -0.223942 -0.052293 -0.094399
v 0.223942 -0.052293 0.094401
v 0.223942 -0.052293 -0.094400
v -0.399180 -0.052293 0.175500
v -0.399180 0.034946 0.175500
v -0.361805 -0.052293 -0.189208
v -0.361805 0.037056 -0.189208
v -0.399180 -0.052293 -0.175498
v -0.399180 0.034946 -0.175498
v -0.424003 -0.052293 0.151454
v -0.424003 0.032467 0.151454
v -0.424003 -0.052293 -0.151453
v -0.424003 0.032466 -0.151453
v -0.434114 -0.052293 0.115986
v -0.434114 0.030083 0.115986
v -0.432410 -0.052293 0.074211
v -0.432410 0.027574 0.074211
v -0.434114 -0.052293 -0.115985
v -0.434114 0.030082 -0.115985
v -0.223759 0.056168 0.047201
v -0.223942 0.028146 0.094401
v 0.223759 0.056168 0.047201
v 0.223942 0.028146 0.094401
v -0.223759 0.056168 -0.047199
v -0.223576 0.061831 -0.000000
v 0.223759 0.056168 -0.047199
v 0.223576 0.061831 -0.000000
v -0.434114 -0.052293 0.115986
v -0.246018 -0.052293 0.127800
v -0.275348 -0.052293 0.158548
v -0.223942 0.028146 -0.094400
v 0.223942 0.028146 -0.094400
v -0.329016 0.054811 0.080118
v -0.361805 0.037056 0.189209
v -0.320797 0.037416 0.184365
v -0.329016 0.054811 -0.080116
v -0.336005 0.047190 -0.000000
v -0.384189 0.024068 -0.000000
v -0.412015 0.025395 0.032435
v -0.246018 0.032655 0.127800
v -0.275348 0.035945 0.158548
v -0.424003 0.032467 0.151454
v -0.399180 0.034946 0.175500
v -0.432410 0.027574 0.074211
v -0.434114 0.030083 0.115986
v -0.246018 0.032655 -0.127798
v -0.275348 0.035945 -0.158546
v -0.320797 0.037416 -0.184363
v -0.412015 0.025395 -0.032433
v -0.361805 0.037056 -0.189208
v -0.399180 0.034946 -0.175498
v -0.424003 0.032466 -0.151453
v -0.434114 0.030082 -0.115985
v -0.432410 0.027574 -0.074209
v -0.361805 -0.052293 0.189209
v -0.424003 -0.052293 0.151454
v -0.399180 -0.052293 0.175500
v -0.432410 -0.052293 0.074211
v -0.412015 -0.052293 0.032435
v -0.384189 -0.052293 0.000000
v -0.246018 -0.052293 -0.127798
v -0.434114 -0.052293 -0.115985
v -0.275348 -0.052293 -0.158546
v -0.412015 -0.052293 -0.032433
v -0.432410 -0.052293 -0.074209
v -0.361805 -0.052293 -0.189208
v -0.399180 -0.052293 -0.175498
v -0.424003 -0.052293 -0.151453
v -0.320797 -0.052293 -0.184363
v -0.320797 -0.052293 0.184365
v 0.223942 -0.052293 -0.094400
v 0.223942 0.028146 -0.094400
v 0.246018 -0.052293 -0.127798
v 0.246018 0.032655 -0.127798
v 0.432410 -0.052293 -0.074209
v 0.432410 0.027574 -0.074209
v 0.412015 -0.052293 -0.032433
v 0.412015 0.025395 -0.032433
v 0.384189 -0.052293 0.000001
v 0.384189 0.024068 -0.000000
v 0.412015 -0.052293 0.032435
v 0.412015 0.025395 0.032435
v 0.275348 -0.052293 0.158548
v 0.275348 0.035945 0.158548
v 0.246018 -0.052293 0.127800
v 0.246018 0.032655 0.127800
v 0.223942 -0.052293 0.094401
v 0.223942 0.028146 0.094401
v 0.320797 -0.052293 0.184365
v 0.320797 0.037416 0.184365
v 0.275348 -0.052293 -0.158546
v 0.275348 0.035945 -0.158546
v 0.361805 -0.052293 0.189209
v 0.361805 0.037056 0.189209
v 0.320797 -0.052293 -0.184364
v 0.320797 0.037416 -0.184364
v 0.384189 -0.052293 0.000001
v 0.384189 0.024068 -0.000000
v 0.399180 -0.052293 0.175500
v 0.399180 0.034946 0.175499
v 0.361805 -0.052293 -0.189208
v 0.361805 0.037056 -0.189208
v 0.399180 -0.052293 -0.175499
v 0.399180 0.034946 -0.175498
v 0.424003 -0.052293 0.151454
v 0.424003 0.032467 0.151454
v 0.424003 -0.052293 -0.151453
v 0.424003 0.032466 -0.151453
v 0.434114 -0.052293 0.115986
v 0.434114 0.030083 0.115987
v 0.432410 -0.052293 0.074211
v 0.432410 0.027574 0.074211
v 0.434114 -0.052293 -0.115985
v 0.434114 0.030082 -0.115985
v 0.432410 -0.052293 0.074211
v 0.246018 -0.052293 0.127800
v 0.434114 -0.052293 0.115986
v 0.275348 -0.052293 0.158548
v 0.329016 0.054811 0.080118
v 0.320797 0.037416 0.184365
v 0.361805 0.037056 0.189209
v 0.329016 0.054811 -0.080116
v 0.336005 0.047190 -0.000000
v 0.384189 0.024068 -0.000000
v 0.412015 0.025395 0.032435
v 0.246018 0.032655 0.127800
v 0.275348 0.035945 0.158548
v 0.399180 0.034946 0.175499
v 0.424003 0.032467 0.151454
v 0.434114 0.030083 0.115987
v 0.432410 0.027574 0.074211
v 0.246018 0.032655 -0.127798
v 0.275348 0.035945 -0.158546
v 0.320797 0.037416 -0.184364
v 0.412015 0.025395 -0.032433
v 0.399180 0.034946 -0.175498
v 0.361805 0.037056 -0.189208
v 0.434114 0.030082 -0.115985
v 0.424003 0.032466 -0.151453
v 0.432410 0.027574 -0.074209
v 0.424003 -0.052293 0.151454
v 0.361805 -0.052293 0.189209
v 0.399180 -0.052293 0.175500
v 0.412015 -0.052293 0.032435
v 0.384189 -0.052293 0.000001
v 0.246018 -0.052293 -0.127798
v 0.432410 -0.052293 -0.074209
v 0.275348 -0.052293 -0.158546
v 0.434114 -0.052293 -0.115985
v 0.412015 -0.052293 -0.032433
v 0.361805 -0.052293 -0.189208
v 0.399180 -0.052293 -0.175499
v 0.424003 -0.052293 -0.151453
v 0.320797 -0.052293 -0.184364
v 0.320797 -0.052293 0.184365
vn 0.3115 0.6825 0.6612
vn 0.1334 -0.9595 0.2481
vn -0.3116 0.6825 0.6612
vn -0.1573 -0.9432 0.2927
vn 0.1334 -0.9595 -0.2481
vn 0.3116 0.6825 -0.6612
vn -0.1573 -0.9432 -0.2927
vn -0.3115 0.6825 -0.6612
vn 0.5519 -0.7085 -0.4398
vn 0.3115 0.6825 -0.6612
vn 0.6455 0.6253 -0.4386
vn 0.4328 -0.7109 -0.5544
vn 0.5016 0.6353 -0.5872
vn 0.2183 -0.7142 -0.6651
vn 0.2448 0.6495 -0.7199
vn -0.0813 -0.7169 -0.6924
vn -0.1068 0.6596 -0.7440
vn -0.4734 -0.4551 -0.7542
vn -0.4368 0.6532 -0.6185
vn -0.7620 -0.4597 -0.4562
vn -0.6786 0.6444 -0.3525
vn -0.3105 -0.9499 -0.0370
vn -0.7818 0.6213 -0.0529
vn -0.6781 -0.7147 0.1713
vn -0.7590 0.6101 0.2272
vn -0.5884 -0.7100 0.3868
vn -0.6583 0.5951 0.4610
vn -0.4514 -0.8923 0.0001
vn -0.6034 0.7974 -0.0000
vn -0.4515 -0.8922 -0.0000
vn -0.5884 -0.7100 -0.3869
vn -0.6035 0.7974 -0.0000
vn -0.6583 0.5951 -0.4609
vn -0.6781 -0.7147 -0.1713
vn -0.7590 0.6101 -0.2272
vn -0.3105 -0.9499 0.0369
vn -0.7818 0.6213 0.0529
vn -0.7620 -0.4597 0.4562
vn -0.6786 0.6444 0.3524
vn -0.4734 -0.4551 0.7542
vn -0.4368 0.6532 0.6185
vn -0.0814 -0.7169 0.6924
vn -0.1068 0.6596 0.7440
vn 0.2182 -0.7142 0.6651
vn 0.2447 0.6495 0.7199
vn 0.4327 -0.7109 0.5544
vn 0.5016 0.6353 0.5872
vn 0.5518 -0.7085 0.4399
vn 0.6455 0.6253 0.4386
vn 0.3115 0.6825 0.6611
vn -0.1574 -0.9432 0.2926
vn -0.4515 -0.8923 -0.0000
vn -0.6782 -0.7146 -0.1713
vn -0.3104 -0.9499 0.0369
vn 0.5519 -0.7085 0.4399
vn 0.4327 -0.7108 0.5545
vn 0.2183 -0.7141 0.6651
vn -0.0814 -0.7168 0.6925
vn -0.7619 -0.4597 0.4562
vn -0.4733 -0.4551 0.7542
vn -0.1573 -0.9432 -0.2926
vn 0.4515 -0.8923 -0.0000
vn 0.5885 -0.7100 -0.3868
vn 0.6782 -0.7146 -0.1714
vn -0.6989 -0.4487 0.5570
vn 0.5460 -0.8353 0.0650
vn -0.4328 -0.7108 0.5544
vn 0.0814 -0.7168 0.6925
vn 0.7619 -0.4597 0.4562
vn 0.4734 -0.4551 0.7541
vn -0.2777 -0.4545 0.8464
vn 0.0439 0.9460 0.3210
vn -0.0439 0.9460 0.3211
vn 0.0350 0.9994 -0.0000
vn -0.0350 0.9994 -0.0000
vn -0.0439 0.9460 -0.3210
vn 0.0439 0.9460 -0.3211
vn -0.0754 0.9959 -0.0506
vn 0.6455 0.6252 -0.4387
vn 0.2447 0.6494 -0.7200
vn -0.4369 0.6531 -0.6186
vn -0.6787 0.6443 -0.3525
vn -0.7819 0.6212 -0.0529
vn -0.7590 0.6101 0.2273
vn -0.6584 0.5950 0.4610
vn -0.2846 0.9586 -0.0000
vn -0.0754 0.9959 0.0506
vn -0.6584 0.5950 -0.4609
vn -0.7591 0.6101 -0.2273
vn -0.7819 0.6212 0.0529
vn -0.6787 0.6443 0.3525
vn -0.4368 0.6531 0.6186
vn 0.2448 0.6494 0.7199
vn 0.6455 0.6252 0.4386
vn -0.3115 0.6825 0.6612
vn 0.0754 0.9959 0.0506
vn 0.2846 0.9586 -0.0000
vn 0.6034 0.7974 -0.0000
vn 0.0754 0.9959 -0.0506
vn 0.6584 0.5950 0.4610
vn 0.7591 0.6101 0.2273
vn 0.7819 0.6212 -0.0529
vn 0.6787 0.6443 -0.3524
vn 0.4368 0.6531 -0.6186
vn 0.1068 0.6596 -0.7440
vn -0.2448 0.6494 -0.7199
vn -0.5016 0.6353 -0.5872
vn -0.6455 0.6252 -0.4386
vn -0.3104 -0.9499 -0.0370
vn 0.4328 -0.7108 -0.5544
vn -0.6782 -0.7146 0.1714
vn -0.5885 -0.7100 0.3869
vn -0.0814 -0.7168 -0.6925
vn -0.4734 -0.4551 -0.7541
vn 0.2182 -0.7141 -0.6651
vn -0.7619 -0.4597 -0.4562
vn -0.1574 -0.9432 -0.2926
vn -0.6989 -0.4486 -0.5570
vn -0.6454 0.6253 -0.4387
vn -0.4327 -0.7109 -0.5544
vn -0.2777 -0.4544 -0.8464
vn -0.2447 0.6495 -0.7199
vn 0.0813 -0.7169 -0.6924
vn 0.4734 -0.4551 -0.7542
vn 0.4368 0.6532 -0.6185
vn 0.7619 -0.4597 -0.4562
vn 0.6786 0.6444 -0.3525
vn 0.5460 -0.8353 -0.0649
vn 0.7818 0.6213 -0.0529
vn 0.6781 -0.7147 0.1713
vn 0.7590 0.6101 0.2272
vn 0.5884 -0.7100 0.3869
vn 0.6583 0.5951 0.4609
vn 0.6035 0.7974 -0.0000
vn 0.4515 -0.8923 -0.0001
vn 0.5884 -0.7100 -0.3869
vn 0.6583 0.5951 -0.4609
vn 0.6781 -0.7147 -0.1713
vn 0.7590 0.6101 -0.2272
vn 0.7818 0.6213 0.0529
vn 0.7620 -0.4597 0.4562
vn 0.6786 0.6444 0.3524
vn 0.4734 -0.4551 0.7542
vn 0.4368 0.6532 0.6185
vn 0.0814 -0.7169 0.6924
vn 0.1068 0.6596 0.7440
vn -0.2778 -0.4544 0.8464
vn -0.2447 0.6495 0.7199
vn -0.4327 -0.7109 0.5544
vn -0.5016 0.6353 0.5872
vn -0.6989 -0.4486 0.5571
vn -0.6455 0.6253 0.4386
vn -0.2447 0.6494 0.7200
vn -0.6455 0.6252 0.4387
vn 0.6583 0.5950 -0.4610
vn 0.7590 0.6101 -0.2273
vn 0.7819 0.6212 0.0529
vn 0.6787 0.6443 0.3525
vn 0.4368 0.6531 0.6185
vn -0.6988 -0.4486 -0.5571
vn 0.6782 -0.7146 0.1713
vn -0.4328 -0.7108 -0.5545
vn -0.2778 -0.4545 -0.8463
vn 0.0814 -0.7168 -0.6925
vn 0.4733 -0.4551 -0.7542
vt 0.972910 1.543810
vt 0.811408 1.543810
vt 0.972910 0.519723
vt 0.811408 0.519723
vt 0.811317 0.519555
vt 0.973000 0.519555
vt 0.811317 1.543980
vt 0.973000 1.543980
vt 0.809413 -0.541559
vt 0.809413 -0.440602
vt 0.975723 -0.541559
vt 0.975723 -0.440602
vt 0.809413 -0.333456
vt 0.975723 -0.333456
vt 0.809413 -0.201399
vt 0.975723 -0.201399
vt 0.809413 -0.097024
vt 0.975723 -0.097024
vt 0.809413 0.003293
vt 0.975723 0.003293
vt 0.809413 0.090425
vt 0.975723 0.090425
vt 0.809413 0.183059
vt 0.975723 0.183059
vt 0.809413 0.288049
vt 0.975723 0.288049
vt 0.809413 0.382561
vt 0.975723 0.382561
vt 0.809413 0.490273
vt 0.975723 0.490273
vt 0.809413 0.491647
vt 0.809413 0.379434
vt 0.975723 0.491647
vt 0.975723 0.379434
vt 0.809413 0.284473
vt 0.975723 0.284473
vt 0.809413 0.180731
vt 0.975723 0.180731
vt 0.809413 0.089199
vt 0.975723 0.089199
vt 0.809413 0.003015
vt 0.975723 0.003015
vt 0.809412 -0.096651
vt 0.975723 -0.096650
vt 0.809413 -0.200288
vt 0.975722 -0.200287
vt 0.809413 -0.331698
vt 0.975723 -0.331698
vt 0.809413 -0.438234
vt 0.975723 -0.438234
vt 0.809413 -0.538503
vt 0.975723 -0.538503
vt -0.398160 0.255307
vt -0.398160 0.739346
vt 0.396941 0.255307
vt -0.622284 0.497326
vt -0.661203 0.414173
vt -0.689727 0.307070
vt -0.692110 0.199967
vt -0.429035 0.169679
vt -0.470058 0.090850
vt -0.533623 0.024661
vt -0.590977 0.012240
vt -0.677969 0.109036
vt -0.643251 0.047389
vt 0.396941 0.739346
vt 0.621066 0.497326
vt 0.659985 0.414173
vt 0.688509 0.307070
vt 0.427817 0.169679
vt 0.690892 0.199967
vt 0.468839 0.090850
vt 0.589759 0.012240
vt 0.676751 0.109036
vt 0.642033 0.047389
vt 0.532404 0.024661
vt -0.397904 0.376317
vt 0.396685 0.376317
vt 0.396429 0.497326
vt -0.397647 0.497326
vt 0.396685 0.618336
vt -0.397904 0.618336
vt -0.545119 0.702727
vt -0.429035 0.824973
vt -0.470058 0.903803
vt -0.533623 0.969992
vt -0.590977 0.982412
vt -0.643251 0.947264
vt -0.677969 0.885617
vt -0.692110 0.794685
vt -0.689727 0.687583
vt -0.661203 0.580480
vt -0.554893 0.497326
vt -0.545119 0.291926
vt 0.543901 0.291926
vt 0.553675 0.497326
vt 0.543901 0.702727
vt 0.659985 0.580480
vt 0.688509 0.687583
vt 0.690892 0.794685
vt 0.676751 0.885617
vt 0.642033 0.947264
vt 0.589759 0.982412
vt 0.532404 0.969992
vt 0.468839 0.903803
vt 0.427817 0.824973
vt 0.809413 -0.539613
vt 0.975723 -0.539613
vt 0.809413 -0.438655
vt 0.975723 -0.438655
vt 0.809413 -0.331510
vt 0.975723 -0.331510
vt 0.809413 -0.199452
vt 0.975723 -0.199452
vt 0.809413 -0.095077
vt 0.975723 -0.095077
vt 0.809413 0.005239
vt 0.975723 0.005239
vt 0.809413 0.092371
vt 0.975723 0.092371
vt 0.809413 0.185006
vt 0.975723 0.185006
vt 0.809413 0.289996
vt 0.975723 0.289996
vt 0.809413 0.384508
vt 0.975723 0.384508
vt 0.809413 0.492219
vt 0.975723 0.492219
s 1
usemtl mt_Bone_mat
f 1/1/1 2/2/2 3/3/3
f 2/2/2 4/4/4 3/3/3
f 5/5/5 6/6/6 7/7/7
f 6/6/6 8/8/8 7/7/7
f 9/9/5 10/10/9 11/11/10
f 10/10/9 12/12/11 11/11/10
f 10/10/9 29/13/12 12/12/11
f 29/13/12 30/14/13 12/12/11
f 29/13/12 33/15/14 30/14/13
f 33/15/14 34/16/15 30/14/13
f 33/15/14 43/17/16 34/16/15
f 43/17/16 44/18/17 34/16/15
f 43/17/16 45/19/18 44/18/17
f 45/19/18 46/20/19 44/18/17
f 45/19/18 49/21/20 46/20/19
f 49/21/20 50/22/21 46/20/19
f 49/21/20 55/23/22 50/22/21
f 55/23/22 56/24/23 50/22/21
f 55/23/22 13/25/24 56/24/23
f 13/25/24 15/26/25 56/24/23
f 13/25/24 14/27/26 15/26/25
f 14/27/26 16/28/27 15/26/25
f 14/27/26 35/29/28 16/28/27
f 35/29/28 36/30/29 16/28/27
f 17/31/30 18/32/31 19/33/32
f 18/32/31 20/34/33 19/33/32
f 18/32/31 53/35/34 20/34/33
f 53/35/34 54/36/35 20/34/33
f 53/35/34 51/37/36 54/36/35
f 51/37/36 52/38/37 54/36/35
f 51/37/36 47/39/38 52/38/37
f 47/39/38 48/40/39 52/38/37
f 47/39/38 41/41/40 48/40/39
f 41/41/40 42/42/41 48/40/39
f 41/41/40 31/43/42 42/42/41
f 31/43/42 32/44/43 42/42/41
f 31/43/42 27/45/44 32/44/43
f 27/45/44 28/46/45 32/44/43
f 27/45/44 21/47/46 28/46/45
f 21/47/46 23/48/47 28/46/45
f 21/47/46 22/49/48 23/48/47
f 22/49/48 24/50/49 23/48/47
f 22/49/48 25/51/2 24/50/49
f 25/51/2 26/52/50 24/50/49
f 37/53/2 38/54/5 39/55/51
f 37/53/2 97/56/52 38/54/5
f 37/53/2 96/57/31 97/56/52
f 37/53/2 95/58/53 96/57/31
f 37/53/2 65/59/54 95/58/53
f 37/53/2 66/60/55 65/59/54
f 65/59/54 66/60/55 67/61/56
f 65/59/54 67/61/56 107/62/57
f 65/59/54 107/62/57 92/63/58
f 65/59/54 92/63/58 93/64/59
f 92/63/58 94/65/60 93/64/59
f 38/54/5 40/66/61 39/55/51
f 39/55/51 40/66/61 182/67/62
f 39/55/51 182/67/62 181/68/63
f 39/55/51 181/68/63 152/69/64
f 39/55/51 152/69/64 153/70/65
f 152/69/64 154/71/66 153/70/65
f 153/70/65 154/71/66 155/72/67
f 154/71/66 179/73/68 155/72/67
f 154/71/66 178/74/69 179/73/68
f 178/74/69 180/75/70 179/73/68
f 179/73/68 192/76/71 155/72/67
f 57/77/72 58/53/1 59/78/73
f 57/77/72 59/78/73 64/79/74
f 62/80/75 57/77/72 64/79/74
f 62/80/75 64/79/74 63/81/76
f 61/82/77 62/80/75 63/81/76
f 61/82/77 63/81/76 69/66/8
f 68/54/10 61/82/77 69/66/8
f 68/54/10 73/83/78 61/82/77
f 83/84/79 73/83/78 68/54/10
f 83/84/79 84/85/13 73/83/78
f 73/83/78 84/85/13 85/86/80
f 73/83/78 85/86/80 87/87/17
f 73/83/78 87/87/17 88/88/81
f 73/83/78 88/88/81 89/89/82
f 73/83/78 89/89/82 90/90/83
f 73/83/78 90/90/83 91/91/84
f 73/83/78 91/91/84 86/92/85
f 75/56/29 73/83/78 86/92/85
f 73/83/78 75/56/29 74/93/86
f 73/83/78 74/93/86 62/80/75
f 61/82/77 73/83/78 62/80/75
f 74/93/86 70/94/87 62/80/75
f 75/56/29 70/94/87 74/93/86
f 70/94/87 75/56/29 76/57/88
f 70/94/87 76/57/88 81/58/89
f 70/94/87 81/58/89 82/59/90
f 70/94/87 82/59/90 79/64/91
f 70/94/87 79/64/91 80/65/92
f 70/94/87 80/65/92 71/63/43
f 70/94/87 71/63/43 72/62/93
f 70/94/87 72/62/93 78/61/47
f 77/60/94 70/94/87 78/61/47
f 58/53/1 70/94/87 77/60/94
f 57/77/72 70/94/87 58/53/1
f 62/80/75 70/94/87 57/77/72
f 58/53/1 60/55/95 59/78/73
f 59/78/73 60/55/95 156/95/96
f 64/79/74 59/78/73 156/95/96
f 156/95/96 160/96/97 64/79/74
f 161/67/98 160/96/97 156/95/96
f 159/97/99 160/96/97 161/67/98
f 161/67/98 172/98/100 159/97/99
f 159/97/99 172/98/100 177/99/101
f 159/97/99 177/99/101 175/100/102
f 159/97/99 175/100/102 176/101/103
f 159/97/99 176/101/103 173/102/104
f 159/97/99 173/102/104 174/103/105
f 159/97/99 174/103/105 171/104/106
f 159/97/99 171/104/106 170/105/107
f 169/106/108 159/97/99 170/105/107
f 169/106/108 69/66/8 159/97/99
f 69/66/8 63/81/76 159/97/99
f 63/81/76 64/79/74 159/97/99
f 159/97/99 64/79/74 160/96/97
f 98/84/9 99/90/109 100/85/110
f 38/54/5 99/90/109 98/84/9
f 38/54/5 102/91/111 99/90/109
f 38/54/5 101/92/112 102/91/111
f 38/54/5 97/56/52 101/92/112
f 103/87/113 99/90/109 104/88/114
f 106/86/115 99/90/109 103/87/113
f 100/85/110 99/90/109 106/86/115
f 99/90/109 105/89/116 104/88/114
f 108/107/117 109/108/8 110/109/118
f 109/108/8 111/110/119 110/109/118
f 110/109/118 111/110/119 128/111/120
f 111/110/119 129/112/107 128/111/120
f 128/111/120 129/112/107 132/113/121
f 129/112/107 133/114/122 132/113/121
f 132/113/121 133/114/122 138/115/123
f 133/114/122 139/116/105 138/115/123
f 138/115/123 139/116/105 140/117/124
f 139/116/105 141/118/125 140/117/124
f 140/117/124 141/118/125 144/119/126
f 141/118/125 145/120/127 144/119/126
f 144/119/126 145/120/127 150/121/128
f 145/120/127 151/122/129 150/121/128
f 150/121/128 151/122/129 112/123/130
f 151/122/129 113/124/131 112/123/130
f 112/123/130 113/124/131 114/125/132
f 113/124/131 115/126/133 114/125/132
f 114/125/132 115/126/133 134/127/62
f 115/126/133 135/128/134 134/127/62
f 116/31/135 117/33/134 118/32/136
f 117/33/134 119/34/137 118/32/136
f 118/32/136 119/34/137 148/35/138
f 119/34/137 149/36/139 148/35/138
f 148/35/138 149/36/139 146/37/66
f 149/36/139 147/38/140 146/37/66
f 146/37/66 147/38/140 142/39/141
f 147/38/140 143/40/142 142/39/141
f 142/39/141 143/40/142 136/41/143
f 143/40/142 137/42/144 136/41/143
f 136/41/143 137/42/144 130/43/145
f 137/42/144 131/44/146 130/43/145
f 130/43/145 131/44/146 126/45/147
f 131/44/146 127/46/148 126/45/147
f 126/45/147 127/46/148 120/47/149
f 127/46/148 121/48/150 120/47/149
f 120/47/149 121/48/150 122/49/151
f 121/48/150 123/50/152 122/49/151
f 122/49/151 123/50/152 124/51/51
f 123/50/152 125/52/95 124/51/51
f 156/95/96 157/76/153 158/73/146
f 156/95/96 164/72/150 157/76/153
f 163/70/154 164/72/150 156/95/96
f 60/55/95 163/70/154 156/95/96
f 156/95/96 162/68/155 161/67/98
f 156/95/96 168/69/156 162/68/155
f 156/95/96 167/71/157 168/69/156
f 156/95/96 166/74/158 167/71/157
f 156/95/96 165/75/159 166/74/158
f 156/95/96 158/73/146 165/75/159
f 40/66/61 183/106/160 184/99/161
f 40/66/61 184/99/161 187/98/132
f 40/66/61 187/98/132 182/67/62
f 183/106/160 185/105/162 184/99/161
f 184/99/161 185/105/162 186/100/128
f 185/105/162 191/104/163 186/100/128
f 191/104/163 188/103/164 186/100/128
f 188/103/164 189/102/165 186/100/128
f 189/102/165 190/101/126 186/100/128
