# Blender 4.1.1
# www.blender.org
mtllib Room.mtl
o vsn_mesh_0_Carpet
v -4.000000 -0.000002 -9.500000
v -4.250000 -0.000002 -10.000000
v -4.500000 -0.000002 -9.750000
v -4.500000 -0.000000 -6.250000
v -4.000000 -0.000000 -6.500000
v 4.000000 -0.000000 -6.500000
v 4.250000 -0.000000 -6.000000
v 4.500000 -0.000000 -6.250000
v 4.500000 -0.000002 -9.750000
v 4.000000 -0.000002 -9.500000
v 4.250000 -0.000002 -10.000000
v -4.250000 -0.000000 -6.000000
vn -0.0000 1.0000 -0.0000
vt 0.055556 0.875000
vt 0.027778 1.000000
vt 0.000000 0.937500
vt 0.000000 0.062500
vt 0.055556 0.125000
vt 0.944444 0.125000
vt 0.972222 0.000000
vt 1.000000 0.062500
vt 1.000000 0.937500
vt 0.944444 0.875000
vt 0.972222 1.000000
vt 0.027778 0.000000
s 1
usemtl mt_Carpet_mat
f 1/1/1 2/2/1 3/3/1
f 1/1/1 3/3/1 4/4/1
f 5/5/1 1/1/1 4/4/1
f 5/5/1 6/6/1 1/1/1
f 7/7/1 6/6/1 5/5/1
f 6/6/1 7/7/1 8/8/1
f 8/8/1 9/9/1 6/6/1
f 9/9/1 10/10/1 6/6/1
f 10/10/1 9/9/1 11/11/1
f 10/10/1 11/11/1 2/2/1
f 1/1/1 10/10/1 2/2/1
f 6/6/1 10/10/1 1/1/1
f 12/12/1 7/7/1 5/5/1
f 5/5/1 4/4/1 12/12/1
o vsn_mesh_13_Yuka
v 22.000000 0.000004 23.000000
v 22.000000 -0.000002 -18.000000
v 17.000000 -0.000002 -18.000000
v 24.000000 -0.000004 -20.000000
v 24.000000 0.000004 25.000000
v -23.500000 0.000004 25.000000
v -21.500000 0.000004 23.000000
v -4.700000 -0.000000 -5.800000
v -4.700000 -0.000002 -10.200000
v -3.000000 -0.000002 -15.000000
v -21.500000 -0.000002 -15.000000
v -23.500000 -0.000002 -17.000000
v -9.000000 -0.000002 -17.000000
v -5.000000 -0.000004 -21.000000
v -5.000000 -0.000006 -35.000000
v -3.000000 -0.000004 -32.997898
v 19.000000 -0.000006 -35.000000
v 17.000000 -0.000004 -33.032799
v 4.700000 -0.000002 -10.200000
v 4.700000 -0.000000 -5.800000
v -4.250000 -0.000000 -6.000000
v -4.500000 -0.000000 -6.250000
v -4.500000 -0.000002 -9.750000
v -4.250000 -0.000002 -10.000000
v 4.250000 -0.000002 -10.000000
v 4.500000 -0.000002 -9.750000
v 4.500000 -0.000000 -6.250000
v 4.250000 -0.000000 -6.000000
v 19.000000 -0.000004 -20.000000
vn -0.0000 1.0000 -0.0000
vt 3.218750 -3.000000
vt 3.218750 2.125000
vt 2.593750 2.125000
vt 3.468750 2.375000
vt 3.468750 -3.250000
vt -2.468750 -3.250000
vt -2.218750 -3.000000
vt -0.118750 0.600000
vt -0.118750 1.150000
vt 0.093750 1.750000
vt -2.218750 1.750000
vt -2.468750 2.000000
vt -0.656250 2.000000
vt -0.156250 2.500000
vt -0.156250 4.250000
vt 0.093750 3.999740
vt 2.843750 4.250000
vt 2.593750 4.004100
vt 1.056250 1.150000
vt 1.056250 0.600000
vt -0.062500 0.625000
vt -0.093750 0.656250
vt -0.093750 1.093750
vt -0.062500 1.125000
vt 1.000000 1.125000
vt 1.031250 1.093750
vt 1.031250 0.656250
vt 1.000000 0.625000
vt 2.843750 2.375000
s 1
usemtl mt_Yuka_mat
f 13/13/2 14/14/2 15/15/2
f 16/16/2 14/14/2 13/13/2
f 17/17/2 16/16/2 13/13/2
f 17/17/2 13/13/2 18/18/2
f 13/13/2 19/19/2 18/18/2
f 19/19/2 13/13/2 20/20/2
f 19/19/2 20/20/2 21/21/2
f 22/22/2 19/19/2 21/21/2
f 19/19/2 22/22/2 23/23/2
f 19/19/2 23/23/2 18/18/2
f 23/23/2 24/24/2 18/18/2
f 24/24/2 23/23/2 25/25/2
f 23/23/2 22/22/2 25/25/2
f 22/22/2 26/26/2 25/25/2
f 27/27/2 26/26/2 22/22/2
f 28/28/2 27/27/2 22/22/2
f 27/27/2 28/28/2 29/29/2
f 28/28/2 30/30/2 29/29/2
f 28/28/2 22/22/2 30/30/2
f 22/22/2 15/15/2 30/30/2
f 15/15/2 22/22/2 31/31/2
f 15/15/2 31/31/2 32/32/2
f 13/13/2 15/15/2 32/32/2
f 13/13/2 32/32/2 20/20/2
f 20/20/2 32/32/2 33/33/2
f 33/33/2 34/34/2 20/20/2
f 20/20/2 34/34/2 35/35/2
f 21/21/2 20/20/2 35/35/2
f 35/35/2 36/36/2 21/21/2
f 21/21/2 36/36/2 37/37/2
f 31/31/2 21/21/2 37/37/2
f 37/37/2 38/38/2 31/31/2
f 31/31/2 38/38/2 39/39/2
f 32/32/2 31/31/2 39/39/2
f 39/39/2 40/40/2 32/32/2
f 32/32/2 40/40/2 33/33/2
f 14/14/2 16/16/2 15/15/2
f 16/16/2 41/41/2 15/15/2
f 15/15/2 41/41/2 30/30/2
f 41/41/2 29/29/2 30/30/2
f 22/22/2 21/21/2 31/31/2
o vsn_mesh_5_polySurface1292
v 18.000000 -0.000008 -34.795300
v 18.000000 19.999996 -34.795300
v 18.000000 -0.000008 -34.995300
v 18.000000 19.999996 -34.995300
v 19.000000 -0.000008 -34.795300
v 19.000000 19.999996 -34.795300
v 18.000000 -0.000008 -34.795300
v 18.000000 19.999996 -34.795300
v -5.654070 -0.000005 -20.063099
v -5.654070 19.999996 -20.063103
v -5.795500 -0.000006 -20.204500
v -5.795500 19.999996 -20.204504
v -5.000000 -0.000006 -21.000000
v -5.000000 19.999996 -21.000004
v -4.858580 -0.000006 -20.858599
v -4.858580 19.999996 -20.858603
v -4.858580 -0.000006 -20.858599
v -4.858580 19.999996 -20.858603
v -5.654070 -0.000005 -20.063099
v -5.654070 19.999996 -20.063103
v -8.858570 -0.000004 -16.858599
v -8.858570 19.999996 -16.858603
v -9.000000 -0.000004 -17.000000
v -9.000000 19.999996 -17.000004
v -8.204500 -0.000004 -17.795500
v -8.204500 19.999996 -17.795504
v -8.063080 -0.000004 -17.654100
v -8.063080 19.999996 -17.654104
v -8.063080 -0.000004 -17.654100
v -8.063080 19.999996 -17.654104
v -8.858570 -0.000004 -16.858599
v -8.858570 19.999996 -16.858603
v 19.872499 -0.000004 -19.699799
v 19.872499 -0.000005 -19.999800
v 19.872499 19.999996 -19.699802
v 19.872499 19.999996 -19.999804
v 19.172499 -0.000006 -20.699799
v 18.872499 -0.000006 -20.699799
v 19.172499 19.999996 -20.699802
v 18.872499 19.999996 -20.699802
v 18.872499 -0.000006 -20.699799
v 18.872499 -0.000004 -19.699799
v 18.872499 19.999996 -20.699802
v 18.872499 19.999996 -19.699802
v 18.872499 -0.000004 -19.699799
v 19.872499 -0.000004 -19.699799
v 18.872499 19.999996 -19.699802
v 19.872499 19.999996 -19.699802
v -4.000000 -0.000008 -35.000000
v -4.000000 19.999996 -35.000000
v -4.000000 -0.000008 -34.799999
v -4.000000 19.999996 -34.799999
v -4.000000 -0.000008 -34.799999
v -4.000000 19.999996 -34.799999
v -5.000000 -0.000008 -34.799999
v -5.000000 19.999996 -34.799999
vn -1.0000 -0.0000 -0.0000
vn -0.0000 -0.0000 1.0000
vn -0.7070 -0.0000 0.7072
vn 0.7070 -0.0000 -0.7072
vn 0.7071 -0.0000 -0.7072
vn 0.7071 -0.0000 0.7071
vn 0.7071 -0.0000 -0.7071
vn 1.0000 -0.0000 -0.0000
vn -0.0000 -0.0000 -1.0000
vt 1.000060 -0.500000
vt 0.999999 1.350000
vt 0.800049 -0.500000
vt 0.800109 1.350000
vt 0.000000 -1.100000
vt 0.000017 0.749999
vt 1.000000 -1.100000
vt 0.999983 0.749999
vt 1.000040 1.350000
vt -0.000058 -0.500000
vt -0.000042 1.350000
vt 0.799995 -1.100000
vt 0.800055 0.749999
vt 0.999940 0.749999
s 0
usemtl mt_Hasira_mat
f 42/42/3 43/43/3 44/44/3
f 43/43/3 45/45/3 44/44/3
f 46/46/4 47/47/4 48/48/4
f 47/47/4 49/49/4 48/48/4
f 50/42/5 51/43/5 52/44/5
f 51/43/5 53/45/5 52/44/5
f 54/42/6 55/50/6 56/51/6
f 55/50/7 57/52/7 56/51/7
f 58/46/8 59/47/8 60/48/8
f 59/47/8 61/49/8 60/48/8
f 62/42/5 63/43/5 64/44/5
f 63/43/5 65/45/5 64/44/5
f 66/42/9 67/50/9 68/51/9
f 67/50/6 69/52/6 68/51/6
f 70/46/8 71/47/8 72/48/8
f 71/47/8 73/49/8 72/48/8
f 74/42/10 75/44/10 76/43/10
f 75/44/10 77/45/10 76/43/10
f 78/53/11 79/48/11 80/54/11
f 79/48/11 81/55/11 80/54/11
f 82/42/3 83/51/3 84/50/3
f 83/51/3 85/52/3 84/50/3
f 86/46/4 87/48/4 88/47/4
f 87/48/4 89/49/4 88/47/4
f 90/42/10 91/50/10 92/51/10
f 91/50/10 93/52/10 92/51/10
f 94/46/4 95/47/4 96/48/4
f 95/47/4 97/49/4 96/48/4
o vsn_mesh_6_polySurface1334
v -7.359360 12.724997 -20.762005
v -7.710010 13.074695 -20.411303
v -7.359360 10.976196 -20.762001
v -8.060650 13.214596 -20.060703
v -8.761940 10.976196 -19.359400
v -8.411300 13.074695 -19.710003
v -8.761940 12.724997 -19.359404
v -7.350640 13.074697 -18.649403
v -7.850940 19.999996 -18.149103
v -7.701280 12.724998 -18.298704
v -6.999990 13.214596 -19.000004
v -6.149040 19.999996 -19.851006
v -6.649350 13.074695 -19.350704
v -6.298700 12.724997 -19.701303
v -6.149040 7.249998 -19.851002
v -5.795490 19.999996 -20.204504
v -5.795490 -0.000004 -20.204500
v -6.149040 5.499998 -19.851002
v -6.149040 -0.000004 -19.851002
v -7.850940 5.499998 -18.149099
v -7.850940 7.249998 -18.149099
v -6.149040 7.249998 -19.851002
v -6.298700 10.976196 -19.701300
v -7.701280 10.976198 -18.298700
v -7.850940 7.249998 -18.149099
v -8.204490 19.999996 -17.795504
v -8.204490 -0.000002 -17.795500
v -9.000000 -0.000002 -17.000000
v -9.000000 19.999996 -17.000004
v -6.298700 12.724997 -19.701303
v -6.649350 13.074695 -19.350704
v -7.359360 12.724997 -20.762005
v -7.710010 13.074695 -20.411303
v -7.701280 12.724998 -18.298704
v -7.701280 10.976198 -18.298700
v -8.761940 12.724997 -19.359404
v -8.761940 10.976196 -19.359400
v -7.701280 10.976198 -18.298700
v -6.298700 10.976196 -19.701300
v -8.761940 10.976196 -19.359400
v -7.359360 10.976196 -20.762001
v -6.298700 10.976196 -19.701300
v -6.298700 12.724997 -19.701303
v -7.359360 10.976196 -20.762001
v -7.359360 12.724997 -20.762005
v -6.999990 13.214596 -19.000004
v -7.350640 13.074697 -18.649403
v -8.060650 13.214596 -20.060703
v -8.411300 13.074695 -19.710003
v -7.350640 13.074697 -18.649403
v -7.701280 12.724998 -18.298704
v -8.411300 13.074695 -19.710003
v -8.761940 12.724997 -19.359404
v -6.649350 13.074695 -19.350704
v -6.999990 13.214596 -19.000004
v -7.710010 13.074695 -20.411303
v -8.060650 13.214596 -20.060703
v -7.850940 -0.000004 -18.149099
v -7.850940 5.499998 -18.149099
v -8.204490 -0.000002 -17.795500
v -6.149040 -0.000004 -19.851002
v -7.850940 7.249998 -18.149099
v -5.000000 -0.000004 -21.000000
v -5.000000 19.999996 -21.000004
v -5.795490 -0.000004 -20.204500
v -5.795490 19.999996 -20.204504
v -7.701280 10.976198 -18.298700
v -7.701280 12.724998 -18.298704
v -7.850940 19.999996 -18.149103
v 24.000000 19.999996 -20.000004
v 23.627499 10.249996 -20.000000
v 24.000000 -0.000004 -20.000000
v 23.627499 19.999996 -20.000004
v 20.500000 10.249996 -20.000000
v 20.500000 19.999996 -20.000004
v 19.872499 19.999996 -20.000004
v 20.500000 8.499996 -20.000000
v 19.872499 -0.000004 -20.000000
v 19.000000 19.999996 -20.000004
v 19.000000 -0.000004 -20.000000
v 20.372499 -0.000004 -20.000000
v 20.500000 5.499998 -20.000000
v 20.500000 7.249998 -20.000000
v 23.627499 8.499996 -20.000000
v 23.627499 10.249996 -20.000000
v 20.500000 10.249996 -20.000000
v 23.627499 5.499998 -20.000000
v 23.627499 -0.000004 -20.000000
v 20.500000 -0.000004 -20.000000
v 20.500000 7.249998 -20.000000
v 23.627499 7.249998 -20.000000
v 23.627499 7.249998 -20.000000
v 24.000000 -0.000004 -20.000000
v 24.000000 0.000004 25.000000
v 24.000000 19.999996 -20.000004
v 24.000000 20.000004 24.999996
v 24.000000 0.000004 25.000000
v -23.500000 0.000004 25.000000
v 24.000000 20.000004 24.999996
v -23.500000 20.000004 24.999996
v -23.500000 0.000004 25.000000
v -23.500000 -0.000002 -17.000000
v -23.500000 20.000004 24.999996
v -23.500000 19.999996 -17.000004
v 19.000000 19.999996 -20.000004
v 19.000000 19.999996 -20.699802
v 19.000000 -0.000004 -20.000000
v 19.000000 -0.000004 -20.699799
v 19.000000 10.249996 -21.379299
v 19.000000 19.999996 -21.379303
v 19.000000 19.999996 -31.000004
v 19.000000 10.249996 -31.000000
v 19.000000 19.999996 -33.500000
v 19.000000 8.499996 -31.000000
v 19.000000 8.499996 -21.379299
v 19.000000 7.249998 -21.379299
v 19.000000 5.499998 -21.379299
v 19.000000 -0.000004 -21.379299
v 19.000000 5.499996 -31.000000
v 19.000000 7.249996 -31.000000
v 19.000000 -0.000006 -33.500000
v 19.000000 19.999996 -34.795300
v 19.000000 -0.000006 -34.795300
v 19.000000 19.999996 -35.000000
v 19.000000 -0.000006 -35.000000
v -5.000000 19.999996 -35.000000
v -5.000000 19.999996 -34.799999
v -5.000000 -0.000006 -35.000000
v -5.000000 -0.000006 -34.799999
v -5.000000 19.999996 -33.799999
v -5.000000 -0.000006 -33.799999
v -5.000000 19.999996 -21.000004
v -5.000000 -0.000004 -21.000000
v -5.000000 19.999996 -30.000004
v -9.500000 19.999996 -17.000004
v -9.500000 10.249998 -17.000000
v -9.000000 19.999996 -17.000004
v -23.000000 10.249998 -17.000000
v -23.000000 19.999996 -17.000004
v -23.500000 19.999996 -17.000004
v -23.500000 -0.000002 -17.000000
v -23.000000 8.499998 -17.000000
v -23.000000 7.249998 -17.000000
v -9.500000 8.499998 -17.000000
v -9.500000 10.249998 -17.000000
v -23.000000 10.249998 -17.000000
v 18.042002 19.999996 -35.000000
v 18.042002 -0.000006 -35.000000
v 19.000000 19.999996 -35.000000
v 16.500000 10.249994 -35.000000
v 16.500000 19.999996 -35.000000
v 13.372499 10.249994 -35.000000
v 13.372499 19.999996 -35.000000
v 11.500000 10.249994 -35.000000
v 11.500000 19.999996 -35.000000
v -2.499980 10.249994 -35.000000
v -2.499980 19.999996 -35.000000
v -4.000000 19.999996 -35.000000
v -4.000000 -0.000006 -35.000000
v -5.000000 -0.000006 -35.000000
v -5.000000 19.999996 -35.000000
v 19.000000 -0.000006 -35.000000
v 16.500000 8.499994 -35.000000
v 16.500000 7.249994 -35.000000
v 16.500000 5.499994 -35.000000
v 16.500000 -0.000006 -35.000000
v 13.372499 -0.000006 -35.000000
v 13.372499 5.499994 -35.000000
v 16.500000 7.249994 -35.000000
v 13.372499 7.249994 -35.000000
v 11.500000 5.499994 -35.000000
v 13.372499 7.249994 -35.000000
v 11.500000 7.249994 -35.000000
v 13.372499 8.499994 -35.000000
v 11.500000 8.499994 -35.000000
v -2.499980 7.249994 -35.000000
v -2.499980 8.499994 -35.000000
v -2.499980 5.499994 -35.000000
v -2.499980 -0.000006 -35.000000
v -2.499980 7.249994 -35.000000
v 11.500000 7.249994 -35.000000
v 11.500000 -0.000006 -35.000000
v -23.000000 5.499998 -17.000000
v -23.500000 -0.000002 -17.000000
v -23.000000 -0.000002 -17.000000
v -9.500000 5.499998 -17.000000
v -9.500000 7.249998 -17.000000
v -23.000000 7.249998 -17.000000
v -23.000000 7.249998 -17.000000
v -9.500000 7.249998 -17.000000
v -9.500000 8.499998 -17.000000
v -9.000000 -0.000002 -17.000000
v -9.500000 10.249998 -17.000000
v -9.000000 19.999996 -17.000004
v -9.500000 -0.000002 -17.000000
v 19.000000 -0.000006 -33.500000
v 19.000000 -0.000004 -31.000000
v 19.000000 5.499996 -31.000000
v 19.000000 7.249996 -31.000000
v 19.000000 8.499996 -31.000000
v 19.000000 -0.000004 -21.379299
v 16.500000 8.499994 -35.000000
v 16.500000 10.249994 -35.000000
v 13.372499 10.249994 -35.000000
v 13.372499 10.249994 -35.000000
v 11.500000 10.249994 -35.000000
v 11.500000 10.249994 -35.000000
v -2.499980 10.249994 -35.000000
v 13.372499 7.249994 -35.000000
v 16.500000 7.249994 -35.000000
v -5.000000 19.999996 -35.000000
v 19.000000 19.999996 -35.000000
v 19.000000 19.999996 -20.000004
v -5.000000 19.999996 -21.000004
v -9.000000 19.999996 -17.000004
v 24.000000 20.000004 24.999996
v 24.000000 19.999996 -20.000004
v -23.500000 20.000004 24.999996
v -23.500000 19.999996 -17.000004
vn 0.7072 -0.0000 0.7071
vn 0.7071 -0.0000 0.7072
vn 0.7071 -0.0000 0.7071
vn 0.7072 -0.0000 0.7070
vn 0.7070 -0.0000 0.7073
vn -0.0000 -0.0000 1.0000
vn -0.4075 -0.8172 0.4075
vn -0.4075 -0.8173 0.4075
vn 0.7071 -0.0000 -0.7071
vn -0.0000 1.0000 -0.0000
vn -0.7071 -0.0000 0.7071
vn 0.1920 -0.9624 -0.1920
vn 0.4075 -0.8172 -0.4075
vn -0.1920 -0.9624 0.1920
vn 1.0000 -0.0000 -0.0000
vn 0.7068 -0.0000 0.7074
vn -1.0000 -0.0000 -0.0000
vn -0.0000 -0.0000 -1.0000
vn -0.0000 -1.0000 -0.0000
vt 0.599178 0.636249
vt 0.549589 0.653736
vt 0.599178 0.548812
vt 0.500000 0.660731
vt 0.400823 0.548812
vt 0.450412 0.653736
vt 0.400823 0.636249
vt 0.379658 1.000000
vt 0.620343 1.000000
vt 0.620343 0.362500
vt 0.670343 1.000000
vt 0.670343 0.000000
vt 0.620342 0.275000
vt 0.620343 0.000000
vt 0.379658 0.275000
vt 0.379658 0.362500
vt 0.329657 1.000000
vt 0.329657 0.000000
vt 0.217157 0.000000
vt 0.217157 1.000000
vt 0.379658 0.000000
vt 0.782843 0.000000
vt 0.782843 1.000000
vt 2.750000 1.000000
vt 2.712750 0.512500
vt 2.750000 0.000000
vt 2.712750 1.000000
vt 2.400000 0.512500
vt 2.400000 1.000000
vt 2.337250 1.000000
vt 2.400000 0.425000
vt 2.337250 0.000000
vt 2.250000 1.000000
vt 2.250000 0.000000
vt 2.387250 0.000000
vt 2.400000 0.275000
vt 2.400000 0.362500
vt 2.712750 0.425000
vt 2.712750 0.275000
vt 2.712750 0.000000
vt 2.400000 0.000000
vt 2.712750 0.362500
vt 2.500000 0.000000
vt -3.000000 0.000000
vt 2.500000 1.000000
vt -3.000000 1.000000
vt -1.750000 0.000000
vt -1.750000 1.000000
vt 1.500000 0.000000
vt 1.500000 1.000000
vt 2.569980 1.000000
vt 2.569980 0.000000
vt 2.637930 0.512500
vt 2.637930 1.000000
vt 3.600000 1.000000
vt 3.600000 0.512500
vt 3.850000 1.000000
vt 3.600000 0.425000
vt 2.637930 0.425000
vt 2.637930 0.362500
vt 2.637930 0.275000
vt 2.637930 0.000000
vt 3.600000 0.275000
vt 3.600000 0.362500
vt 3.850000 0.000000
vt 3.979530 1.000000
vt 3.979530 0.000000
vt 4.000000 1.000000
vt 4.000000 0.000000
vt 1.050000 1.000000
vt 1.030000 1.000000
vt 1.050000 0.000000
vt 1.030000 0.000000
vt 0.930000 1.000000
vt 0.930000 0.000000
vt -0.050000 1.000000
vt -0.050000 0.000000
vt 0.550000 1.000000
vt -0.700000 1.000000
vt -0.700000 0.512500
vt -0.650000 1.000000
vt -1.700000 0.512500
vt -1.700000 1.000000
vt -1.700000 0.425000
vt -1.700000 0.362500
vt -0.700000 0.425000
vt 2.154200 1.000000
vt 2.154200 0.000000
vt 2.000000 0.512500
vt 2.000000 1.000000
vt 1.688890 0.512500
vt 1.688890 1.000000
vt 1.555560 0.512500
vt 1.555560 1.000000
vt 0.000002 0.512500
vt 0.000002 1.000000
vt -0.150000 1.000000
vt -0.150000 0.000000
vt -0.250000 0.000000
vt -0.250000 1.000000
vt 2.000000 0.425000
vt 2.000000 0.362500
vt 2.000000 0.275000
vt 2.000000 0.000000
vt 1.688890 0.000000
vt 1.688890 0.275000
vt 1.688890 0.362500
vt 1.555560 0.275000
vt 1.555560 0.362500
vt 1.688890 0.425000
vt 1.555560 0.425000
vt 0.000002 0.362500
vt 0.000002 0.425000
vt 0.000002 0.275000
vt 0.000002 0.000000
vt 1.555560 0.000000
vt -1.700000 0.275000
vt -1.700000 0.000000
vt -0.700000 0.275000
vt -0.700000 0.362500
vt -0.650000 0.000000
vt -0.700000 0.000000
vt 3.600000 0.000000
vt 0.389474 0.862508
vt 0.894737 0.862508
vt 0.894737 0.681254
vt 0.389474 0.693338
vt 0.305263 0.645003
vt 1.000000 0.137492
vt 1.000000 0.681254
vt 0.000000 0.137492
vt 0.000000 0.645003
s 0
usemtl mt_Kabe_mat
f 98/56/12 99/57/12 100/58/12
f 99/57/13 101/59/13 100/58/13
f 100/58/14 101/59/14 102/60/14
f 101/59/15 103/61/15 102/60/15
f 102/60/13 103/61/13 104/62/13
f 105/61/12 106/63/12 107/62/12
f 108/59/13 106/63/13 105/61/13
f 109/64/14 106/63/14 108/59/14
f 109/64/15 108/59/15 110/57/15
f 109/64/13 110/57/13 111/56/13
f 112/65/15 109/64/15 111/56/15
f 109/64/13 112/65/13 113/66/13
f 112/65/13 114/67/13 113/66/13
f 114/67/13 112/65/13 115/68/13
f 114/67/13 115/68/13 116/69/13
f 115/68/14 117/70/14 116/69/14
f 118/71/14 117/70/14 115/68/14
f 119/65/14 118/71/14 115/68/14
f 120/58/14 121/60/14 112/65/14
f 120/58/15 112/65/15 111/56/15
f 121/60/14 122/71/14 112/65/14
f 122/71/16 121/60/16 106/63/16
f 122/71/12 106/63/12 123/72/12
f 124/73/12 122/71/12 123/72/12
s 1
f 125/74/17 124/73/14 123/72/14
f 126/75/17 125/74/17 123/72/14
s 0
f 127/56/18 128/57/18 129/56/18
f 128/57/19 130/57/19 129/56/19
f 131/62/20 132/60/20 133/62/20
f 132/60/20 134/60/20 133/62/20
f 135/60/21 136/58/21 137/60/21
f 136/58/21 138/58/21 137/60/21
f 139/58/22 140/56/22 141/58/22
f 140/56/22 142/56/22 141/58/22
f 143/59/23 144/61/23 145/59/23
f 144/61/23 146/61/23 145/59/23
f 147/61/24 148/62/24 149/61/24
f 148/62/24 150/62/24 149/61/24
f 151/57/25 152/59/25 153/57/25
f 152/59/25 154/59/25 153/57/25
f 155/76/12 156/70/12 157/73/12
f 156/70/14 155/76/14 158/69/14
f 157/73/14 156/70/14 159/71/14
s 1
f 160/77/26 161/78/26 162/67/14
f 161/78/26 163/66/14 162/67/14
s 0
f 164/60/27 165/62/27 166/63/27
f 167/79/17 168/80/17 169/81/17
f 170/82/17 168/80/17 167/79/17
f 171/83/17 168/80/17 170/82/17
f 172/84/17 171/83/17 170/82/17
f 173/85/17 171/83/17 172/84/17
f 174/86/17 171/83/17 173/85/17
f 175/87/17 174/86/17 173/85/17
f 175/87/17 173/85/17 176/88/17
f 177/89/17 175/87/17 176/88/17
f 175/87/17 178/90/17 179/91/17
f 175/87/17 179/91/17 174/86/17
f 179/91/17 180/92/17 174/86/17
f 174/86/17 180/92/17 181/93/17
f 174/86/17 181/93/17 182/80/17
f 183/83/17 174/86/17 182/80/17
f 168/80/17 181/93/17 169/81/17
f 169/81/17 181/93/17 184/94/17
f 169/81/17 184/94/17 185/95/17
f 186/96/17 185/95/17 184/94/17
f 179/91/17 186/96/17 184/94/17
f 178/90/17 186/96/17 179/91/17
f 187/92/17 179/91/17 188/97/17
f 179/91/17 184/94/17 188/97/17
f 181/93/17 189/97/17 184/94/17
f 180/92/17 189/97/17 181/93/17
f 190/98/28 191/99/28 192/100/28
f 191/99/28 193/101/28 192/100/28
f 194/81/29 195/102/29 196/79/29
f 195/102/29 197/103/29 196/79/29
f 198/99/26 199/104/26 200/101/26
f 199/104/26 201/105/26 200/101/26
f 202/100/28 203/106/28 204/98/28
f 203/106/28 205/107/28 204/98/28
f 203/106/28 206/108/28 205/107/28
f 203/106/28 207/109/28 206/108/28
f 207/109/28 208/110/28 206/108/28
f 208/110/28 209/111/28 206/108/28
f 210/112/28 209/111/28 208/110/28
f 211/113/28 209/111/28 210/112/28
f 209/111/28 211/113/28 212/114/28
f 206/108/28 209/111/28 212/114/28
f 206/108/28 212/114/28 205/107/28
f 205/107/28 212/114/28 213/115/28
f 205/107/28 213/115/28 214/116/28
f 205/107/28 214/116/28 215/117/28
f 214/116/28 216/118/28 215/117/28
f 217/119/28 216/118/28 214/116/28
f 213/115/28 217/119/28 214/116/28
f 211/113/28 217/119/28 213/115/28
f 212/114/28 211/113/28 213/115/28
f 218/120/28 211/113/28 210/112/28
f 218/120/28 210/112/28 219/121/28
f 220/122/28 218/120/28 219/121/28
f 219/121/28 221/123/28 220/122/28
f 221/123/28 222/124/28 220/122/28
f 223/125/26 224/126/26 225/127/26
f 224/126/26 226/128/26 225/127/26
f 224/126/26 227/129/26 226/128/26
f 227/129/26 228/130/26 226/128/26
f 228/130/26 227/129/26 229/131/26
f 230/132/26 228/130/26 229/131/26
f 229/131/21 227/129/21 231/133/21
f 232/134/17 233/135/17 234/136/17
f 235/137/17 233/135/17 232/134/17
f 236/138/17 235/137/17 232/134/17
f 237/103/17 235/137/17 236/138/17
f 237/103/17 238/102/17 235/137/17
f 238/102/17 239/139/17 235/137/17
f 239/139/17 238/102/17 240/140/17
f 239/139/17 240/140/17 241/141/17
f 239/139/17 241/141/17 242/135/17
f 243/137/17 239/139/17 242/135/17
f 244/142/17 245/143/17 246/88/17
f 244/142/17 247/144/17 245/143/17
f 248/145/17 247/144/17 244/142/17
f 249/146/17 247/144/17 248/145/17
f 250/147/17 249/146/17 248/145/17
f 251/148/17 249/146/17 250/147/17
f 252/149/17 251/148/17 250/147/17
f 253/150/17 251/148/17 252/149/17
f 254/151/17 253/150/17 252/149/17
f 255/152/17 253/150/17 254/151/17
f 255/152/17 256/153/17 253/150/17
f 257/154/17 256/153/17 255/152/17
f 258/155/17 257/154/17 255/152/17
f 245/143/17 259/89/17 246/88/17
f 247/144/17 260/156/17 245/143/17
f 245/143/17 260/156/17 261/157/17
f 245/143/17 261/157/17 262/158/17
f 245/143/17 262/158/17 263/159/17
f 264/160/17 263/159/17 262/158/17
f 265/161/17 264/160/17 262/158/17
f 265/161/17 262/158/17 266/157/17
f 267/162/17 265/161/17 266/157/17
f 268/163/17 265/161/17 269/162/17
f 270/164/17 268/163/17 269/162/17
f 270/164/17 269/162/17 271/165/17
f 272/166/17 270/164/17 271/165/17
f 273/167/17 270/164/17 272/166/17
f 274/168/17 273/167/17 272/166/17
f 274/168/17 256/153/17 273/167/17
f 256/153/17 274/168/17 253/150/17
f 275/169/17 256/153/17 276/170/17
f 273/167/17 256/153/17 275/169/17
f 277/167/17 275/169/17 278/164/17
f 275/169/17 268/163/17 278/164/17
f 275/169/17 276/170/17 268/163/17
f 276/170/17 279/171/17 268/163/17
f 268/163/17 279/171/17 265/161/17
f 279/171/17 264/160/17 265/161/17
f 280/172/17 281/102/17 282/173/17
f 280/172/17 282/173/17 283/174/17
f 280/172/17 283/174/17 284/175/17
f 285/140/17 280/172/17 284/175/17
f 286/140/17 281/102/17 280/172/17
f 286/140/17 287/175/17 288/141/17
f 289/176/17 288/141/17 287/175/17
f 290/135/17 288/141/17 289/176/17
f 291/136/17 290/135/17 289/176/17
f 289/176/17 283/174/17 292/177/17
f 289/176/17 287/175/17 283/174/17
f 282/173/17 292/177/17 283/174/17
f 293/120/28 294/178/28 295/118/28
f 293/120/28 295/118/28 296/119/28
f 293/120/28 296/119/28 297/113/28
f 295/118/28 294/178/28 298/117/28
f 271/165/17 269/162/17 299/156/17
f 271/165/17 299/156/17 300/144/17
f 301/146/17 271/165/17 300/144/17
f 272/166/17 271/165/17 302/146/17
f 303/148/17 272/166/17 302/146/17
f 274/168/17 272/166/17 304/148/17
f 305/150/17 274/168/17 304/148/17
f 306/162/17 307/157/17 299/156/17
f 308/179/30 309/180/30 310/181/30
f 308/179/30 310/181/30 311/182/30
f 310/181/30 312/183/30 311/182/30
f 313/184/30 312/183/30 310/181/30
f 313/184/30 310/181/30 314/185/30
f 313/184/30 315/186/30 312/183/30
f 312/183/30 315/186/30 316/187/30
